<?xml version="1.0" encoding="UTF-8"?>
<svg version="1.1" xmlns="http://www.w3.org/2000/svg" width="243" height="217">
<path d="M0 0 C80.19 0 160.38 0 243 0 C243 71.61 243 143.22 243 217 C162.81 217 82.62 217 0 217 C0 145.39 0 73.78 0 0 Z " fill="#E6E6E7" transform="translate(0,0)"/>
<path d="M0 0 C1.0450621 -0.00004028 2.09012421 -0.00008057 3.16685486 -0.00012207 C5.36984288 0.00522556 7.5728309 0.02277567 9.77563477 0.05175781 C13.14463657 0.09365415 16.51164064 0.09281998 19.88085938 0.0859375 C22.02475345 0.09642917 24.16863725 0.10936714 26.3125 0.125 C27.31781265 0.12520142 28.32312531 0.12540283 29.35890198 0.12561035 C38.13843618 0.27402833 38.13843618 0.27402833 42.08984375 3.59375 C44.74850841 7.4340434 45.37588446 11.06161511 46.02734375 15.59375 C46.79027374 20.66944128 47.60263589 23.79884733 51.08984375 27.59375 C53.21103503 28.54606597 53.21103503 28.54606597 55.08984375 28.59375 C55.08984375 31.23375 55.08984375 33.87375 55.08984375 36.59375 C54.14109375 36.820625 53.19234375 37.0475 52.21484375 37.28125 C48.9702552 38.24814638 48.9702552 38.24814638 47.98046875 40.7734375 C47.01257096 43.83844718 46.34584259 46.87996755 45.71484375 50.03125 C44.56397382 55.1180951 43.63224108 58.7387882 40.08984375 62.59375 C35.32427091 65.27056755 30.28152971 64.91710425 24.96875 64.9296875 C23.99123276 64.9363443 23.01371552 64.9430011 22.00657654 64.94985962 C19.94312415 64.95996616 17.87963922 64.96467726 15.81616211 64.96435547 C12.66660571 64.96873019 9.51844946 65.00507567 6.36914062 65.04296875 C4.36068186 65.04883707 2.35221646 65.05280636 0.34375 65.0546875 C-0.59391708 65.06905853 -1.53158417 65.08342957 -2.49766541 65.09823608 C-8.12417543 65.05908679 -11.50113716 64.44852984 -15.91015625 60.59375 C-18.96037055 55.28411771 -19.85109004 49.56397228 -20.96875 43.58203125 C-22.03271328 40.20472041 -23.16466861 38.78500836 -25.91015625 36.59375 C-26.90015625 36.26375 -27.89015625 35.93375 -28.91015625 35.59375 C-28.91015625 33.28375 -28.91015625 30.97375 -28.91015625 28.59375 C-28.14703125 28.366875 -27.38390625 28.14 -26.59765625 27.90625 C-23.20179021 26.24780379 -22.58086056 24.96676653 -20.91015625 21.59375 C-20.06564239 18.22948254 -19.33274546 14.88733734 -18.71289062 11.4765625 C-18.56529297 10.79335938 -18.41769531 10.11015625 -18.265625 9.40625 C-18.14856201 8.79394531 -18.03149902 8.18164062 -17.91088867 7.55078125 C-13.96227032 -0.17113256 -7.7604187 -0.12681708 0 0 Z " fill="#3BA8C4" transform="translate(109.91015625,42.40625)"/>
<path d="M0 0 C0.66902344 -0.020625 1.33804688 -0.04125 2.02734375 -0.0625 C7.54630484 -0.10587101 10.59633732 1.31170359 14.625 4.9375 C16.33139795 8.44509578 15.93448516 11.57965453 14.75 15.25 C12.6875 17.25 12.6875 17.25 10.75 18.25 C12.00756667 21.73249231 13.5231892 24.31465849 15.75 27.25 C15.75 27.91 15.75 28.57 15.75 29.25 C12.5625 29.75 12.5625 29.75 8.75 29.25 C7.19035745 27.30804952 6.11570144 25.29498411 4.94921875 23.09765625 C3.82505378 20.95568314 3.82505378 20.95568314 0.9375 20.25 C0.215625 20.25 -0.50625 20.25 -1.25 20.25 C-1.25 23.55 -1.25 26.85 -1.25 30.25 C-2.03375 30.37375 -2.8175 30.4975 -3.625 30.625 C-6.39057822 31.04117993 -6.39057822 31.04117993 -8.25 33.25 C-8.89767793 35.82061311 -8.89767793 35.82061311 -9.25 38.25 C-7.58388095 38.292721 -5.91617115 38.29063832 -4.25 38.25 C-3.92 37.92 -3.59 37.59 -3.25 37.25 C-1.25045254 37.20745644 0.75041636 37.20919217 2.75 37.25 C3.41 37.25 4.07 37.25 4.75 37.25 C7.41666667 37.25 10.08333333 37.25 12.75 37.25 C13.875 42 13.875 42 12.75 44.25 C13.08 45.24 13.41 46.23 13.75 47.25 C12.265 46.755 12.265 46.755 10.75 46.25 C10.75 45.59 10.75 44.93 10.75 44.25 C9.76 44.25 8.77 44.25 7.75 44.25 C7.5334375 45.3328125 7.5334375 45.3328125 7.3125 46.4375 C7.0340625 47.8296875 7.0340625 47.8296875 6.75 49.25 C6.605625 50.1575 6.46125 51.065 6.3125 52 C6.0340625 53.11375 6.0340625 53.11375 5.75 54.25 C4.76 54.745 4.76 54.745 3.75 55.25 C6.39 55.58 9.03 55.91 11.75 56.25 C11.75 57.9 11.75 59.55 11.75 61.25 C10.43 59.93 9.11 58.61 7.75 57.25 C7.75 58.9 7.75 60.55 7.75 62.25 C-1.58333333 62.25 -10.91666667 62.25 -20.25 62.25 C-20.25 59.28 -20.25 56.31 -20.25 53.25 C-19.26 52.92 -18.27 52.59 -17.25 52.25 C-18.57 52.25 -19.89 52.25 -21.25 52.25 C-21.25 53.57 -21.25 54.89 -21.25 56.25 C-23.1875 56.8125 -23.1875 56.8125 -25.25 57.25 C-25.58 56.92 -25.91 56.59 -26.25 56.25 C-26.58 57.57 -26.91 58.89 -27.25 60.25 C-26.26 60.25 -25.27 60.25 -24.25 60.25 C-24.58 61.24 -24.91 62.23 -25.25 63.25 C-27.56 62.92 -29.87 62.59 -32.25 62.25 C-32.91 60.27 -33.57 58.29 -34.25 56.25 C-34.25 58.23 -34.25 60.21 -34.25 62.25 C-35.508125 62.1675 -36.76625 62.085 -38.0625 62 C-40.24323074 61.93277201 -40.24323074 61.93277201 -42.25 62.25 C-44.16256712 64.13077873 -44.16256712 64.13077873 -45.25 66.25 C-45.91 66.25 -46.57 66.25 -47.25 66.25 C-47.25 65.59 -47.25 64.93 -47.25 64.25 C-48.9 64.25 -50.55 64.25 -52.25 64.25 C-52.25 63.59 -52.25 62.93 -52.25 62.25 C-52.91 62.25 -53.57 62.25 -54.25 62.25 C-54.25 61.59 -54.25 60.93 -54.25 60.25 C-55.24 60.25 -56.23 60.25 -57.25 60.25 C-57.25 60.91 -57.25 61.57 -57.25 62.25 C-57.91 62.25 -58.57 62.25 -59.25 62.25 C-59.25 60.93 -59.25 59.61 -59.25 58.25 C-60.24 58.25 -61.23 58.25 -62.25 58.25 C-62.745 60.725 -62.745 60.725 -63.25 63.25 C-68.2 63.25 -73.15 63.25 -78.25 63.25 C-78.25 60.28 -78.25 57.31 -78.25 54.25 C-72.74935166 54.16537464 -67.70358098 54.470917 -62.25 55.25 C-59.4660817 53.85804085 -59.27101003 52.09424221 -58.25 49.25 C-59.9 48.92 -61.55 48.59 -63.25 48.25 C-63.25 44.62 -63.25 40.99 -63.25 37.25 C-60.61 37.25 -57.97 37.25 -55.25 37.25 C-55.25 37.58 -55.25 37.91 -55.25 38.25 C-57.23 38.25 -59.21 38.25 -61.25 38.25 C-61.25 39.24 -61.25 40.23 -61.25 41.25 C-59.6 41.25 -57.95 41.25 -56.25 41.25 C-56.25 41.91 -56.25 42.57 -56.25 43.25 C-57.9 43.25 -59.55 43.25 -61.25 43.25 C-61.25 43.91 -61.25 44.57 -61.25 45.25 C-57.785 44.755 -57.785 44.755 -54.25 44.25 C-54.25 43.21875 -54.25 42.1875 -54.25 41.125 C-53.89682199 38.37245391 -53.4215018 37.41715081 -51.40234375 35.44921875 C-49.39418131 33.96523275 -47.37007646 32.56840746 -45.25 31.25 C-46.03375 30.8375 -46.8175 30.425 -47.625 30 C-50.53718359 28.05854427 -51.12888479 27.48877727 -52.25 24.25 C-52.4859136 21.32824349 -52.43814011 18.42872974 -52.375 15.5 C-52.36597656 14.70722656 -52.35695313 13.91445312 -52.34765625 13.09765625 C-52.32417012 11.14830719 -52.28830137 9.19911425 -52.25 7.25 C-50.27 7.25 -48.29 7.25 -46.25 7.25 C-46.25 12.53 -46.25 17.81 -46.25 23.25 C-44.27 23.25 -42.29 23.25 -40.25 23.25 C-38.25383446 21.25383446 -38.84016573 17.43298037 -38.6875 14.6875 C-38.62272461 13.62112305 -38.62272461 13.62112305 -38.55664062 12.53320312 C-38.45028223 10.77238088 -38.34961154 9.0112168 -38.25 7.25 C-36.27 7.25 -34.29 7.25 -32.25 7.25 C-31.755 19.13 -31.755 19.13 -31.25 31.25 C-32.9 31.58 -34.55 31.91 -36.25 32.25 C-36.25 33.57 -36.25 34.89 -36.25 36.25 C-35.0434375 36.435625 -35.0434375 36.435625 -33.8125 36.625 C-32.966875 36.83125 -32.12125 37.0375 -31.25 37.25 C-30.92 37.91 -30.59 38.57 -30.25 39.25 C-29.59 38.26 -28.93 37.27 -28.25 36.25 C-26.12109375 35.37109375 -26.12109375 35.37109375 -23.6875 34.6875 C-21.30050679 34.0473843 -21.30050679 34.0473843 -19.25 33.25 C-18.755 32.26 -18.755 32.26 -18.25 31.25 C-18.88808594 31.07984375 -19.52617188 30.9096875 -20.18359375 30.734375 C-21.00988281 30.49203125 -21.83617187 30.2496875 -22.6875 30 C-23.51121094 29.76796875 -24.33492187 29.5359375 -25.18359375 29.296875 C-27.25 28.25 -27.25 28.25 -28.03515625 26.140625 C-28.10605469 25.51671875 -28.17695312 24.8928125 -28.25 24.25 C-24.31329512 22.93776504 -22.12511856 24.00703744 -18.25 25.25 C-18.745 23.765 -18.745 23.765 -19.25 22.25 C-21.57671865 21.23470459 -23.9103447 20.23511802 -26.25 19.25 C-28.44576787 15.9563482 -28.61287182 15.06015416 -28.25 11.25 C-27.61055976 9.57269907 -26.94707826 7.90417778 -26.25 6.25 C-24.12562788 6.05551523 -22.00046809 5.86961711 -19.875 5.6875 C-18.69164062 5.58308594 -17.50828125 5.47867188 -16.2890625 5.37109375 C-13.25 5.25 -13.25 5.25 -11.25 6.25 C-11.25 5.59 -11.25 4.93 -11.25 4.25 C-10.59 4.25 -9.93 4.25 -9.25 4.25 C-9.5284375 5.425625 -9.5284375 5.425625 -9.8125 6.625 C-10.50962266 9.22089775 -10.50962266 9.22089775 -9.25 11.25 C-9.18941406 10.53972656 -9.12882812 9.82945312 -9.06640625 9.09765625 C-8.94072266 7.71900391 -8.94072266 7.71900391 -8.8125 6.3125 C-8.69068359 4.93771484 -8.69068359 4.93771484 -8.56640625 3.53515625 C-7.9021245 -1.26243419 -3.98467279 0.03001637 0 0 Z " fill="#DEE3E4" transform="translate(126.25,123.75)"/>
<path d="M0 0 C1.529043 2.038724 3.0373834 4.05688779 4.4375 6.1875 C6.23710466 8.2750414 7.31498405 8.62965297 10 9 C10 11.64 10 14.28 10 17 C9.05125 17.226875 8.1025 17.45375 7.125 17.6875 C3.88041145 18.65439638 3.88041145 18.65439638 2.890625 21.1796875 C1.92272721 24.24469718 1.25599884 27.28621755 0.625 30.4375 C-0.52586993 35.5243451 -1.45760267 39.1450382 -5 43 C-9.76557284 45.67681755 -14.80831404 45.32335425 -20.12109375 45.3359375 C-21.09861099 45.3425943 -22.07612823 45.3492511 -23.08326721 45.35610962 C-25.1467196 45.36621616 -27.21020453 45.37092726 -29.27368164 45.37060547 C-32.42323804 45.37498019 -35.57139429 45.41132567 -38.72070312 45.44921875 C-40.72916189 45.45508707 -42.73762729 45.45905636 -44.74609375 45.4609375 C-46.15259438 45.48249405 -46.15259438 45.48249405 -47.58750916 45.50448608 C-53.21401918 45.46533679 -56.59098091 44.85477984 -61 41 C-64.0502143 35.69036771 -64.94093379 29.97022228 -66.05859375 23.98828125 C-67.12255703 20.61097041 -68.25451236 19.19125836 -71 17 C-71.99 16.67 -72.98 16.34 -74 16 C-74 13.69 -74 11.38 -74 9 C-73.278125 8.79375 -72.55625 8.5875 -71.8125 8.375 C-68.0744694 6.54751837 -66.50753083 4.29561194 -64 1 C-63.34 1.33 -62.68 1.66 -62 2 C-62 3.32 -62 4.64 -62 6 C-60.02 6.66 -58.04 7.32 -56 8 C-55.67 7.01 -55.34 6.02 -55 5 C-54.34 5 -53.68 5 -53 5 C-53 4.34 -53 3.68 -53 3 C-52.34 3 -51.68 3 -51 3 C-50.67 3.66 -50.34 4.32 -50 5 C-48.68 4.34 -47.36 3.68 -46 3 C-47.62339805 4.70884005 -49.29319053 6.37446717 -51 8 C-51.66 8 -52.32 8 -53 8 C-53 8.66 -53 9.32 -53 10 C-53.66 10 -54.32 10 -55 10 C-55 11.98 -55 13.96 -55 16 C-54.01 16.33 -53.02 16.66 -52 17 C-51.71125 17.804375 -51.4225 18.60875 -51.125 19.4375 C-50.22055781 22.23928441 -50.22055781 22.23928441 -47.375 23.3125 C-46.59125 23.539375 -45.8075 23.76625 -45 24 C-45 24.66 -45 25.32 -45 26 C-41.83390538 27.87620422 -39.64167599 28.09662822 -36 28 C-35.75765625 27.19175781 -35.5153125 26.38351563 -35.265625 25.55078125 C-33.04512141 18.47079095 -31.375942 13.250628 -25 9 C-22.03163146 9.3830153 -19.62111184 10.59583294 -17 12 C-17.25 13.8125 -17.25 13.8125 -18 16 C-18.66 16.474375 -19.32 16.94875 -20 17.4375 C-22.25275456 18.87886306 -22.25275456 18.87886306 -22.75 21.6875 C-22.8325 22.450625 -22.915 23.21375 -23 24 C-20.56318178 22.57852271 -18.22519051 21.17593009 -16 19.4375 C-14 18 -14 18 -11.3125 17.1875 C-10.549375 16.795625 -9.78625 16.40375 -9 16 C-8.835 15.01 -8.67 14.02 -8.5 13 C-8.335 12.01 -8.17 11.02 -8 10 C-5.5625 8.875 -5.5625 8.875 -3 8 C-1.32501756 5.48752634 -0.62935259 2.93697877 0 0 Z " fill="#503F7B" transform="translate(155,62)"/>
<path d="M0 0 C1.98 0 3.96 0 6 0 C6 3.3 6 6.6 6 10 C7.32 9.34 8.64 8.68 10 8 C13 7.5625 13 7.5625 16 8 C18.33290453 10.12311095 19.81330632 11.82443112 20.31835938 15.00463867 C20.39323823 17.28667299 20.34942171 19.53153645 20.25 21.8125 C20.23195312 22.60076172 20.21390625 23.38902344 20.1953125 24.20117188 C20.14844048 26.13464261 20.0767041 28.06748285 20 30 C17.69 30 15.38 30 13 30 C13.04125 30.78375 13.0825 31.5675 13.125 32.375 C13 35 13 35 11 37 C10.67 37.99 10.34 38.98 10 40 C4.375 40.25 4.375 40.25 1 38 C1 40.97 1 43.94 1 47 C0.01 47.495 0.01 47.495 -1 48 C-1 44.7 -1 41.4 -1 38 C-2.98 39.65 -4.96 41.3 -7 43 C-7.66 41.35 -8.32 39.7 -9 38 C-9.99 38 -10.98 38 -12 38 C-12 40.97 -12 43.94 -12 47 C-12.99 47.495 -12.99 47.495 -14 48 C-14 44.7 -14 41.4 -14 38 C-15.98 39.32 -17.96 40.64 -20 42 C-20.99 41.01 -21.98 40.02 -23 39 C-23.33 41.97 -23.66 44.94 -24 48 C-24.33 48 -24.66 48 -25 48 C-25.33 46.35 -25.66 44.7 -26 43 C-26.495 45.475 -26.495 45.475 -27 48 C-27.66 48 -28.32 48 -29 48 C-29 47.34 -29 46.68 -29 46 C-30.98 46 -32.96 46 -35 46 C-35 46.66 -35 47.32 -35 48 C-35.66 47.67 -36.32 47.34 -37 47 C-35.68 44.03 -34.36 41.06 -33 38 C-31.35 38.66 -29.7 39.32 -28 40 C-28 39.34 -28 38.68 -28 38 C-28.66 38 -29.32 38 -30 38 C-29.1875 35.5625 -29.1875 35.5625 -28 33 C-26.515 32.505 -26.515 32.505 -25 32 C-25 26.39 -25 20.78 -25 15 C-23.68 14.34 -22.36 13.68 -21 13 C-19.64691687 11.68671343 -18.31129922 10.35500919 -17 9 C-13.93570224 7.46785112 -11.3834358 7.77061452 -8 8 C-5.0625 9.5 -5.0625 9.5 -3 11 C-4.0625 13 -4.0625 13 -6 15 C-9.6875 15.25 -9.6875 15.25 -13 15 C-12.01 15.66 -11.02 16.32 -10 17 C-9.67 17.99 -9.34 18.98 -9 20 C-9.33 20.66 -9.66 21.32 -10 22 C-6.42956053 20.07003272 -4.07695436 18.50774514 -2 15 C-1.47730899 12.37256926 -1.08547616 9.89962186 -0.8125 7.25 C-0.73064453 6.55261719 -0.64878906 5.85523438 -0.56445312 5.13671875 C-0.36522867 3.42573224 -0.18110071 1.71299963 0 0 Z " fill="#E5E2E6" transform="translate(179,123)"/>
<path d="M0 0 C1.00353516 -0.0309375 1.00353516 -0.0309375 2.02734375 -0.0625 C7.54630484 -0.10587101 10.59633732 1.31170359 14.625 4.9375 C16.33139795 8.44509578 15.93448516 11.57965453 14.75 15.25 C12.6875 17.25 12.6875 17.25 10.75 18.25 C12.00756667 21.73249231 13.5231892 24.31465849 15.75 27.25 C15.75 27.91 15.75 28.57 15.75 29.25 C12.5625 29.75 12.5625 29.75 8.75 29.25 C7.19035745 27.30804952 6.11570144 25.29498411 4.94921875 23.09765625 C3.82505378 20.95568314 3.82505378 20.95568314 0.9375 20.25 C0.215625 20.25 -0.50625 20.25 -1.25 20.25 C-1.25 23.55 -1.25 26.85 -1.25 30.25 C-2.03375 30.37375 -2.8175 30.4975 -3.625 30.625 C-6.39057822 31.04117993 -6.39057822 31.04117993 -8.25 33.25 C-8.8925235 35.31874034 -8.8925235 35.31874034 -9.25 37.25 C-11.89 37.58 -14.53 37.91 -17.25 38.25 C-18.24 40.725 -18.24 40.725 -19.25 43.25 C-20.24 43.25 -21.23 43.25 -22.25 43.25 C-21.92 41.6 -21.59 39.95 -21.25 38.25 C-23.56 37.92 -25.87 37.59 -28.25 37.25 C-28.25 36.92 -28.25 36.59 -28.25 36.25 C-27.61191406 36.05664062 -26.97382812 35.86328125 -26.31640625 35.6640625 C-25.07697266 35.27347656 -25.07697266 35.27347656 -23.8125 34.875 C-22.98878906 34.61976563 -22.16507812 34.36453125 -21.31640625 34.1015625 C-19.07201984 33.44117773 -19.07201984 33.44117773 -18.25 31.25 C-18.88808594 31.07984375 -19.52617188 30.9096875 -20.18359375 30.734375 C-21.00988281 30.49203125 -21.83617188 30.2496875 -22.6875 30 C-23.51121094 29.76796875 -24.33492188 29.5359375 -25.18359375 29.296875 C-27.25 28.25 -27.25 28.25 -28.03515625 26.140625 C-28.10605469 25.51671875 -28.17695312 24.8928125 -28.25 24.25 C-24.31329512 22.93776504 -22.12511856 24.00703744 -18.25 25.25 C-18.58 24.26 -18.91 23.27 -19.25 22.25 C-21.57671865 21.23470459 -23.9103447 20.23511802 -26.25 19.25 C-28.44576787 15.9563482 -28.61287182 15.06015416 -28.25 11.25 C-27.61055976 9.57269907 -26.94707826 7.90417778 -26.25 6.25 C-24.12562788 6.05551523 -22.00046809 5.86961711 -19.875 5.6875 C-18.69164063 5.58308594 -17.50828125 5.47867188 -16.2890625 5.37109375 C-13.25 5.25 -13.25 5.25 -11.25 6.25 C-11.25 5.59 -11.25 4.93 -11.25 4.25 C-10.59 4.25 -9.93 4.25 -9.25 4.25 C-9.435625 5.03375 -9.62125 5.8175 -9.8125 6.625 C-10.50962266 9.22089775 -10.50962266 9.22089775 -9.25 11.25 C-9.15912109 10.18458984 -9.15912109 10.18458984 -9.06640625 9.09765625 C-8.98261719 8.17855469 -8.89882812 7.25945312 -8.8125 6.3125 C-8.73128906 5.39597656 -8.65007812 4.47945312 -8.56640625 3.53515625 C-7.9021245 -1.26243419 -3.98467279 0.03001637 0 0 Z " fill="#DED9DD" transform="translate(126.25,123.75)"/>
<path d="M0 0 C1.98 0 3.96 0 6 0 C6 5.28 6 10.56 6 16 C7.98 16 9.96 16 12 16 C13.99616554 14.00383446 13.40983427 10.18298037 13.5625 7.4375 C13.62727539 6.37112305 13.62727539 6.37112305 13.69335938 5.28320312 C13.79971777 3.52238088 13.90038846 1.7612168 14 0 C15.98 0 17.96 0 20 0 C20.495 11.88 20.495 11.88 21 24 C19.35 24.33 17.7 24.66 16 25 C16 26.32 16 27.64 16 29 C15.01 29.495 15.01 29.495 14 30 C14 33.63 14 37.26 14 41 C14.99 41.33 15.98 41.66 17 42 C16.67 42.99 16.34 43.98 16 45 C16.99 45.495 16.99 45.495 18 46 C17.67 46.99 17.34 47.98 17 49 C15.66923011 49.34342449 14.33568021 49.67619874 13 50 C12.34 50.99 11.68 51.98 11 53 C10.67 52.01 10.34 51.02 10 50 C5.38492226 48.95785309 5.38492226 48.95785309 1 50 C1 48.68 1 47.36 1 46 C0.34 46 -0.32 46 -1 46 C-1 48.97 -1 51.94 -1 55 C-1.33 54.34 -1.66 53.68 -2 53 C-2.99 53 -3.98 53 -5 53 C-5 53.66 -5 54.32 -5 55 C-5.66 55 -6.32 55 -7 55 C-7 53.68 -7 52.36 -7 51 C-7.99 51 -8.98 51 -10 51 C-10.495 53.475 -10.495 53.475 -11 56 C-15.95 56 -20.9 56 -26 56 C-26 53.03 -26 50.06 -26 47 C-20.49935166 46.91537464 -15.45358098 47.220917 -10 48 C-7.2160817 46.60804085 -7.02101003 44.84424221 -6 42 C-7.65 41.67 -9.3 41.34 -11 41 C-11 37.37 -11 33.74 -11 30 C-8.36 30 -5.72 30 -3 30 C-3 30.33 -3 30.66 -3 31 C-4.98 31 -6.96 31 -9 31 C-9 31.99 -9 32.98 -9 34 C-7.35 34 -5.7 34 -4 34 C-4 34.66 -4 35.32 -4 36 C-5.65 36 -7.3 36 -9 36 C-9 36.66 -9 37.32 -9 38 C-5.535 37.505 -5.535 37.505 -2 37 C-2 35.96875 -2 34.9375 -2 33.875 C-1.64682199 31.12245391 -1.1715018 30.16715081 0.84765625 28.19921875 C2.85581869 26.71523275 4.87992354 25.31840746 7 24 C6.21625 23.5875 5.4325 23.175 4.625 22.75 C1.71281641 20.80854427 1.12111521 20.23877727 0 17 C-0.2359136 14.07824349 -0.18814011 11.17872974 -0.125 8.25 C-0.11597656 7.45722656 -0.10695313 6.66445312 -0.09765625 5.84765625 C-0.07417012 3.89830719 -0.03830137 1.94911425 0 0 Z " fill="#E2E5E5" transform="translate(74,131)"/>
<path d="M0 0 C1.65 0.99 3.3 1.98 5 3 C5.45375 2.505 5.9075 2.01 6.375 1.5 C8 0 8 0 10 0 C10.33 2.97 10.66 5.94 11 9 C11.33 6.03 11.66 3.06 12 0 C12.99 0 13.98 0 15 0 C16.6875 2 16.6875 2 18 4 C18.45375 3.34 18.9075 2.68 19.375 2 C19.91125 1.34 20.4475 0.68 21 0 C21.66 0 22.32 0 23 0 C23.33 2.97 23.66 5.94 24 9 C24.33 6.03 24.66 3.06 25 0 C27.64 0 30.28 0 33 0 C33 0.33 33 0.66 33 1 C31.35 1 29.7 1 28 1 C28 1.99 28 2.98 28 4 C29.65 4 31.3 4 33 4 C33 4.66 33 5.32 33 6 C31.02 6 29.04 6 27 6 C27 6.99 27 7.98 27 9 C29.31 9 31.62 9 34 9 C34.33 6.03 34.66 3.06 35 0 C37.64 0 40.28 0 43 0 C44.2380014 3.57644848 43.74926071 6.33694766 43 10 C41.35 9.01 39.7 8.02 38 7 C38 7.66 38 8.32 38 9 C38.66 9.33 39.32 9.66 40 10 C36.7 10.66 33.4 11.32 30 12 C30.495 13.98 30.495 13.98 31 16 C30.67 16.66 30.34 17.32 30 18 C33.47147842 18.74957157 33.47147842 18.74957157 37 19 C37.99 19.33 38.98 19.66 40 20 C39.505 22.475 39.505 22.475 39 25 C32.33333333 25 25.66666667 25 19 25 C19 23.35 19 21.7 19 20 C18.34 20.33 17.68 20.66 17 21 C16.34786708 23.02463255 16.34786708 23.02463255 16 25 C13.69 25 11.38 25 9 25 C8.67 23.35 8.34 21.7 8 20 C12.875 19 12.875 19 14 19 C11.69 19 9.38 19 7 19 C7 20.98 7 22.96 7 25 C6.34 25 5.68 25 5 25 C5 23.35 5 21.7 5 20 C4.34 20 3.68 20 3 20 C3 21.65 3 23.3 3 25 C0.36 25 -2.28 25 -5 25 C-5 23.02 -5 21.04 -5 19 C-3.68 19 -2.36 19 -1 19 C-1 18.34 -1 17.68 -1 17 C-0.34 17 0.32 17 1 17 C0.67 16.34 0.34 15.68 0 15 C-0.0716735 12.44842345 -0.09308442 9.92527029 -0.0625 7.375 C-0.05798828 6.66859375 -0.05347656 5.9621875 -0.04882812 5.234375 C-0.03703875 3.48954725 -0.01910324 1.744763 0 0 Z " fill="#DEE1E1" transform="translate(155,161)"/>
<path d="M0 0 C2.9375 1.5 2.9375 1.5 5 3 C4.01 4.32 3.02 5.64 2 7 C-0.64 6.67 -3.28 6.34 -6 6 C-8.14915785 9.22373677 -8.38286803 10.26703674 -8 14 C-6.12447731 16.32645936 -6.12447731 16.32645936 -3.0625 16.125 C-2.051875 16.08375 -1.04125 16.0425 0 16 C0.99 16 1.98 16 3 16 C3.66 16.99 4.32 17.98 5 19 C-0.625 22.875 -0.625 22.875 -4 24 C-4.0928125 25.3921875 -4.0928125 25.3921875 -4.1875 26.8125 C-5 30 -5 30 -7.375 31.875 C-10 33 -10 33 -13 33 C-13.66 32.34 -14.32 31.68 -15 31 C-15.33 33.97 -15.66 36.94 -16 40 C-16.33 40 -16.66 40 -17 40 C-17.33 38.35 -17.66 36.7 -18 35 C-18.495 37.475 -18.495 37.475 -19 40 C-19.66 40 -20.32 40 -21 40 C-21 39.34 -21 38.68 -21 38 C-22.98 38 -24.96 38 -27 38 C-27 38.66 -27 39.32 -27 40 C-27.66 39.67 -28.32 39.34 -29 39 C-27.68 36.03 -26.36 33.06 -25 30 C-22.525 30.99 -22.525 30.99 -20 32 C-20 31.34 -20 30.68 -20 30 C-20.66 30 -21.32 30 -22 30 C-21.1875 27.5625 -21.1875 27.5625 -20 25 C-19.01 24.67 -18.02 24.34 -17 24 C-17 18.39 -17 12.78 -17 7 C-15.68 6.34 -14.36 5.68 -13 5 C-11.64691687 3.68671343 -10.31129922 2.35500919 -9 1 C-5.93570224 -0.53214888 -3.3834358 -0.22938548 0 0 Z " fill="#E1E0E2" transform="translate(171,131)"/>
<path d="M0 0 C-0.3125 1.9375 -0.3125 1.9375 -1 4 C-1.99 4.33 -2.98 4.66 -4 5 C-4.66 4.67 -5.32 4.34 -6 4 C-11.74459689 3.32573112 -11.74459689 3.32573112 -16.5625 6 C-18.46612435 9.97278125 -18.39358359 12.84622181 -17 17 C-15.44202118 19.14782671 -15.44202118 19.14782671 -13 20 C-9.88810534 20.24895157 -7.80915474 20.40457737 -5 19 C-4.34786708 16.97536745 -4.34786708 16.97536745 -4 15 C-5.98 15 -7.96 15 -10 15 C-10 13.35 -10 11.7 -10 10 C-6.04 10 -2.08 10 2 10 C2 13.96 2 17.92 2 22 C-3.09515457 25.62322102 -7.06300946 26.74791851 -13.33984375 26.5234375 C-17.65146213 25.67504269 -20.32236462 23.40364148 -23 20 C-25.52664562 15.75180941 -25.90976759 11.83363475 -25 7 C-22.950059 2.9755339 -20.44956247 -0.08448686 -16.625 -2.5 C-10.04370138 -3.75358069 -5.78307931 -3.46984759 0 0 Z " fill="#462D4E" transform="translate(68,127)"/>
<path d="M0 0 C2.00674482 3.49322247 2.01037293 5.26120894 1.31640625 9.1328125 C0.42601829 11.68783881 -0.94867199 12.71745974 -3.3125 13.9375 C-2.05493333 17.41999231 -0.5393108 20.00215849 1.6875 22.9375 C1.6875 23.5975 1.6875 24.2575 1.6875 24.9375 C-1.5 25.4375 -1.5 25.4375 -5.3125 24.9375 C-6.87214255 22.99554952 -7.94679856 20.98248411 -9.11328125 18.78515625 C-10.23744622 16.64318314 -10.23744622 16.64318314 -13.125 15.9375 C-13.846875 15.9375 -14.56875 15.9375 -15.3125 15.9375 C-15.3125 18.9075 -15.3125 21.8775 -15.3125 24.9375 C-17.2925 24.9375 -19.2725 24.9375 -21.3125 24.9375 C-20.9825 21.6375 -20.6525 18.3375 -20.3125 14.9375 C-19.3225 14.6075 -18.3325 14.2775 -17.3125 13.9375 C-16.6525 12.9475 -15.9925 11.9575 -15.3125 10.9375 C-12.9296875 10.64453125 -12.9296875 10.64453125 -10.1875 10.75 C-9.27742187 10.77707031 -8.36734375 10.80414063 -7.4296875 10.83203125 C-6.73101562 10.86683594 -6.03234375 10.90164062 -5.3125 10.9375 C-5.3125 8.2975 -5.3125 5.6575 -5.3125 2.9375 C-6.48619141 2.86402344 -6.48619141 2.86402344 -7.68359375 2.7890625 C-8.69550781 2.71429688 -9.70742187 2.63953125 -10.75 2.5625 C-12.26400391 2.45808594 -12.26400391 2.45808594 -13.80859375 2.3515625 C-14.63488281 2.21492187 -15.46117188 2.07828125 -16.3125 1.9375 C-16.6425 1.2775 -16.9725 0.6175 -17.3125 -0.0625 C-17.6425 0.9275 -17.9725 1.9175 -18.3125 2.9375 C-17.6525 2.9375 -16.9925 2.9375 -16.3125 2.9375 C-16.0625 10.5625 -16.0625 10.5625 -18.3125 13.9375 C-18.9725 13.9375 -19.6325 13.9375 -20.3125 13.9375 C-20.3125 8.6575 -20.3125 3.3775 -20.3125 -2.0625 C-3.85060624 -3.43432448 -3.85060624 -3.43432448 0 0 Z " fill="#563A60" transform="translate(140.3125,128.0625)"/>
<path d="M0 0 C1.98 0 3.96 0 6 0 C6 3.3 6 6.6 6 10 C7.32 9.34 8.64 8.68 10 8 C13 7.5625 13 7.5625 16 8 C18.33290453 10.12311095 19.81330632 11.82443112 20.31835938 15.00463867 C20.39323823 17.28667299 20.34942171 19.53153645 20.25 21.8125 C20.23195312 22.60076172 20.21390625 23.38902344 20.1953125 24.20117188 C20.14844048 26.13464261 20.0767041 28.06748285 20 30 C18.02 30 16.04 30 14 30 C13.67 25.05 13.34 20.1 13 15 C11.02 15 9.04 15 7 15 C6.67 19.95 6.34 24.9 6 30 C4.02 30 2.04 30 0 30 C0 20.1 0 10.2 0 0 Z " fill="#53395C" transform="translate(179,123)"/>
<path d="M0 0 C1.98 0 3.96 0 6 0 C6 5.28 6 10.56 6 16 C7.98 16 9.96 16 12 16 C13.99616554 14.00383446 13.40983427 10.18298037 13.5625 7.4375 C13.60568359 6.72658203 13.64886719 6.01566406 13.69335938 5.28320312 C13.79971777 3.52238088 13.90038846 1.7612168 14 0 C15.98 0 17.96 0 20 0 C20 7.26 20 14.52 20 22 C18.02 22 16.04 22 14 22 C14 21.34 14 20.68 14 20 C13.01 20.66 12.02 21.32 11 22 C9.0625 22.37109375 9.0625 22.37109375 7 22.4375 C6.319375 22.47746094 5.63875 22.51742187 4.9375 22.55859375 C3 22 3 22 1.26171875 20.0234375 C-0.4289463 15.97212248 -0.32927417 12.52433541 -0.1875 8.1875 C-0.17396484 7.39923828 -0.16042969 6.61097656 -0.14648438 5.79882812 C-0.11133456 3.86558831 -0.05753361 1.93270318 0 0 Z " fill="#4E3456" transform="translate(74,131)"/>
<path d="M0 0 C0.66 0.33 1.32 0.66 2 1 C2 2.32 2 3.64 2 5 C3.98 5.66 5.96 6.32 8 7 C8.33 6.01 8.66 5.02 9 4 C9.66 4 10.32 4 11 4 C11 3.34 11 2.68 11 2 C11.66 2 12.32 2 13 2 C13.33 2.66 13.66 3.32 14 4 C15.32 3.34 16.64 2.68 18 2 C16.37660195 3.70884005 14.70680947 5.37446717 13 7 C12.34 7 11.68 7 11 7 C11 7.66 11 8.32 11 9 C10.34 9 9.68 9 9 9 C9 10.98 9 12.96 9 15 C9.99 15.33 10.98 15.66 12 16 C11.46375 16.2475 10.9275 16.495 10.375 16.75 C7.82280339 18.02682198 7.82280339 18.02682198 5 20.125 C2 22 2 22 -2 22 C-3.0064275 20.33720673 -4.00585407 18.67016516 -5 17 C-7.57099402 15.65310085 -7.57099402 15.65310085 -10 15 C-10 12.69 -10 10.38 -10 8 C-8.9171875 7.690625 -8.9171875 7.690625 -7.8125 7.375 C-4.0744694 5.54751837 -2.50753083 3.29561194 0 0 Z " fill="#516B9D" transform="translate(91,63)"/>
<path d="M0 0 C2.31 0 4.62 0 7 0 C7.11601004 3.60389664 7.18718408 7.20731467 7.25 10.8125 C7.28351563 11.83666016 7.31703125 12.86082031 7.3515625 13.91601562 C7.36445313 14.89892578 7.37734375 15.88183594 7.390625 16.89453125 C7.41157227 17.80050049 7.43251953 18.70646973 7.45410156 19.63989258 C7 22 7 22 5.10058594 23.6940918 C4.40739258 24.1250415 3.71419922 24.55599121 3 25 C2.34 25.66 1.68 26.32 1 27 C1 26.34 1 25.68 1 25 C-4.94 24.01 -4.94 24.01 -11 23 C-11 22.67 -11 22.34 -11 22 C-8.69 22 -6.38 22 -4 22 C-4.66708984 21.07767578 -4.66708984 21.07767578 -5.34765625 20.13671875 C-6.19650391 18.92435547 -6.19650391 18.92435547 -7.0625 17.6875 C-7.63097656 16.88699219 -8.19945312 16.08648437 -8.78515625 15.26171875 C-9.18605469 14.51535156 -9.58695313 13.76898438 -10 13 C-9.67 12.01 -9.34 11.02 -9 10 C-6.36 9.67 -3.72 9.34 -1 9 C-0.67 6.03 -0.34 3.06 0 0 Z " fill="#C7C0C8" transform="translate(146,131)"/>
<path d="M0 0 C1.81090958 3.62181916 -0.56417454 7.5596546 -1.7421875 11.24609375 C-3.73648017 17.19800448 -5.84348434 23.10493466 -8 29 C-9.9453125 28.625 -9.9453125 28.625 -12 28 C-12.28875 27.34 -12.5775 26.68 -12.875 26 C-13.24625 25.34 -13.6175 24.68 -14 24 C-17.05908413 23.18415432 -17.05908413 23.18415432 -20 23 C-20.33 21.35 -20.66 19.7 -21 18 C-17.22272911 19.81309003 -13.62730178 21.9073259 -10 24 C-10.95264124 19.80837855 -11.63260408 18.2792209 -15.125 15.625 C-16.07375 15.08875 -17.0225 14.5525 -18 14 C-16.84994407 10.7798434 -15.88601627 9.92556164 -12.9375 8 C-9.88208269 6.32556978 -9.88208269 6.32556978 -9.125 3.75 C-9.08375 3.1725 -9.0425 2.595 -9 2 C-6.23735711 1.40267181 -3.83967231 1 -1 1 C-0.67 0.67 -0.34 0.34 0 0 Z " fill="#497AA9" transform="translate(124,62)"/>
<path d="M0 0 C2.81811254 0.31312362 5.22501401 0.7593785 7.9375 1.4375 C10.03571215 1.03811233 10.03571215 1.03811233 11.9375 0.4375 C12.5975 0.4375 13.2575 0.4375 13.9375 0.4375 C14.99154945 4.41946457 14.77848656 7.41945309 13.9375 11.4375 C13.2775 10.1175 12.6175 8.7975 11.9375 7.4375 C7.9775 7.4375 4.0175 7.4375 -0.0625 7.4375 C-0.0625 9.0875 -0.0625 10.7375 -0.0625 12.4375 C1.9175 12.4375 3.8975 12.4375 5.9375 12.4375 C5.5625 14.875 5.5625 14.875 4.9375 17.4375 C2.08425563 18.86412219 0.10295451 18.74783868 -3.0625 18.4375 C-5.94883687 16.89812034 -7.57433095 15.70512128 -8.76953125 12.6015625 C-9.38034209 9.62171898 -9.47707724 7.41515976 -8.27734375 4.5859375 C-5.96615137 1.27975721 -3.89931612 0.06571881 0 0 Z " fill="#E1E0E0" transform="translate(58.0625,129.5625)"/>
<path d="M0 0 C2.4375 1 2.4375 1 4 2 C3.67 3.32 3.34 4.64 3 6 C0.36 5.67 -2.28 5.34 -5 5 C-5 5.99 -5 6.98 -5 8 C-3.906875 8.268125 -2.81375 8.53625 -1.6875 8.8125 C3.63539446 10.52665245 3.63539446 10.52665245 5 13 C4.875 16.5625 4.875 16.5625 4 20 C0.74917327 22.16721782 -0.29232153 22.27221018 -4.0625 22.25 C-4.94035156 22.25515625 -5.81820312 22.2603125 -6.72265625 22.265625 C-9 22 -9 22 -11 20 C-10.67 18.68 -10.34 17.36 -10 16 C-5.545 16.99 -5.545 16.99 -1 18 C-1.33 17.01 -1.66 16.02 -2 15 C-4.32671865 13.98470459 -6.6603447 12.98511802 -9 12 C-11.16551116 8.75173326 -11.55156953 7.76905843 -11 4 C-7.97734774 -0.47352534 -5.17078023 -0.55401217 0 0 Z " fill="#4A2E57" transform="translate(109,131)"/>
<path d="M0 0 C2.9375 1.5 2.9375 1.5 5 3 C4.01 4.32 3.02 5.64 2 7 C-0.64 6.67 -3.28 6.34 -6 6 C-8.14915785 9.22373677 -8.38286803 10.26703674 -8 14 C-6.12447731 16.32645936 -6.12447731 16.32645936 -3.0625 16.125 C-2.051875 16.08375 -1.04125 16.0425 0 16 C0.99 16 1.98 16 3 16 C3.66 16.99 4.32 17.98 5 19 C1.1620498 22.32385987 -1.6179959 22.64815377 -6.58203125 22.46484375 C-9 22 -9 22 -12.125 19.625 C-14.4869129 16.07369524 -14.70160196 12.52699063 -14.5 8.34375 C-13.73421779 4.75414588 -11.88588695 3.13005942 -9 1 C-5.93570224 -0.53214888 -3.3834358 -0.22938548 0 0 Z " fill="#452D51" transform="translate(171,131)"/>
<path d="M0 0 C0.33 0 0.66 0 1 0 C0.7464147 4.31095008 0.4154009 6.49714628 -2.375 9.875 C-5.75404911 12.61042071 -8.16194234 13.12344791 -12.3762207 13.17700195 C-13.69823235 13.19625481 -13.69823235 13.19625481 -15.04695129 13.21589661 C-16.47197212 13.22697701 -16.47197212 13.22697701 -17.92578125 13.23828125 C-18.90612839 13.246353 -19.88647552 13.25442474 -20.89653015 13.26274109 C-22.9719364 13.2765728 -25.04736531 13.28729904 -27.12280273 13.29516602 C-30.28999108 13.31237768 -33.45613515 13.35627223 -36.62304688 13.40039062 C-38.64061733 13.410518 -40.65819666 13.41903396 -42.67578125 13.42578125 C-44.09169304 13.45204338 -44.09169304 13.45204338 -45.53620911 13.47883606 C-51.2828059 13.45996302 -54.68917857 12.94528006 -59 9 C-59.375 5.75 -59.375 5.75 -59 3 C-58.38125 3.804375 -57.7625 4.60875 -57.125 5.4375 C-54.76578497 8.28243577 -54.06149634 8.86916845 -50.46850586 9.31201172 C-42.15487768 9.94423163 -33.8985602 10.15187607 -25.5625 10.125 C-23.72268555 10.13080078 -23.72268555 10.13080078 -21.84570312 10.13671875 C-20.66041016 10.13542969 -19.47511719 10.13414063 -18.25390625 10.1328125 C-16.66557983 10.13112061 -16.66557983 10.13112061 -15.04516602 10.12939453 C-11.95657233 9.99815468 -9.03530482 9.57201309 -6 9 C-5.8453125 8.0409375 -5.8453125 8.0409375 -5.6875 7.0625 C-5.460625 6.381875 -5.23375 5.70125 -5 5 C-4.01 4.67 -3.02 4.34 -2 4 C-0.79117904 1.99983534 -0.79117904 1.99983534 0 0 Z " fill="#442050" transform="translate(153,94)"/>
<path d="M0 0 C2.11924028 0.77063283 4.07572958 1.6856587 6.0625 2.75 C5.8125 4.5625 5.8125 4.5625 5.0625 6.75 C4.4025 7.224375 3.7425 7.69875 3.0625 8.1875 C0.80974544 9.62886306 0.80974544 9.62886306 0.3125 12.4375 C0.23 13.200625 0.1475 13.96375 0.0625 14.75 C2.49931822 13.32852271 4.83730949 11.92593009 7.0625 10.1875 C9.0625 8.75 9.0625 8.75 11.75 7.9375 C12.513125 7.545625 13.27625 7.15375 14.0625 6.75 C14.96080839 3.69727535 14.96080839 3.69727535 15.0625 0.75 C16.3825 1.08 17.7025 1.41 19.0625 1.75 C18.61428589 6.13027425 15.97322454 8.04386973 12.8125 10.875 C11.85859375 11.74382812 10.9046875 12.61265625 9.921875 13.5078125 C6.80723674 15.95016545 4.09717515 17.75 0.0625 17.75 C-2.3669516 14.1058226 -2.09929575 12.03758728 -1.9375 7.75 C-5.66901108 8.99383703 -6.68284148 10.59347807 -8.9375 13.75 C-9.2675 14.74 -9.5975 15.73 -9.9375 16.75 C-10.5975 16.75 -11.2575 16.75 -11.9375 16.75 C-7.39957482 -0.95478385 -7.39957482 -0.95478385 0 0 Z " fill="#496CA0" transform="translate(131.9375,71.25)"/>
<path d="M0 0 C4.95 0 9.9 0 15 0 C15 0.66 15 1.32 15 2 C10.38 2 5.76 2 1 2 C1 7.28 1 12.56 1 18 C1.66 18 2.32 18 3 18 C3.66 14.37 4.32 10.74 5 7 C4.01 7.33 3.02 7.66 2 8 C2 6.68 2 5.36 2 4 C2.99 3.67 3.98 3.34 5 3 C5 3.99 5 4.98 5 6 C5.62648438 5.98839844 6.25296875 5.97679687 6.8984375 5.96484375 C7.71570313 5.95582031 8.53296875 5.94679687 9.375 5.9375 C10.18710938 5.92589844 10.99921875 5.91429687 11.8359375 5.90234375 C14 6 14 6 16 7 C16 9.64 16 12.28 16 15 C15.32453125 15.02578125 14.6490625 15.0515625 13.953125 15.078125 C8.40839225 15.38777326 8.40839225 15.38777326 3.4375 17.625 C1.56784249 20.71399937 1.2744872 23.4316664 1 27 C0.67 27 0.34 27 0 27 C0 18.09 0 9.18 0 0 Z " fill="#594163" transform="translate(119,124)"/>
<path d="M0 0 C0 2.97 0 5.94 0 9 C-0.66 9 -1.32 9 -2 9 C-2 7.68 -2 6.36 -2 5 C-2.99 5 -3.98 5 -5 5 C-5.33 6.65 -5.66 8.3 -6 10 C-10.95 10 -15.9 10 -21 10 C-21 7.03 -21 4.06 -21 1 C-16.55664261 0.93164066 -12.51754363 0.91652522 -8.125 1.625 C-4.31917739 2.08169871 -3.50922765 0 0 0 Z " fill="#D5EEF0" transform="translate(69,177)"/>
<path d="M0 0 C0.94875 0.04125 1.8975 0.0825 2.875 0.125 C4.36606457 3.10712913 3.99441467 5.84109658 3.875 9.125 C2.875 10.125 2.875 10.125 -0.5625 10.375 C-1.738125 10.2925 -2.91375 10.21 -4.125 10.125 C-6.125 7.125 -6.125 7.125 -5.875 4.5625 C-4.73051297 0.84291716 -3.91822743 0.1567291 0 0 Z M6.72265625 0.02734375 C8.7734375 0.05989583 10.82421875 0.09244792 12.875 0.125 C14 4.875 14 4.875 12.875 7.125 C13.205 8.115 13.535 9.105 13.875 10.125 C12.885 9.795 11.895 9.465 10.875 9.125 C10.875 8.465 10.875 7.805 10.875 7.125 C9.885 7.125 8.895 7.125 7.875 7.125 C7.875 8.115 7.875 9.105 7.875 10.125 C7.215 10.125 6.555 10.125 5.875 10.125 C5.875 7.485 5.875 4.845 5.875 2.125 C5.215 1.795 4.555 1.465 3.875 1.125 C4.875 0.125 4.875 0.125 6.72265625 0.02734375 Z " fill="#DDDDDD" transform="translate(126.125,160.875)"/>
<path d="M0 0 C0.66 0 1.32 0 2 0 C2.33 0.99 2.66 1.98 3 3 C3.99 2.67 4.98 2.34 6 2 C7.11375 2.33 8.2275 2.66 9.375 3 C12.91382416 3.97622736 14.56260081 4.04163612 18 3 C18.33 2.01 18.66 1.02 19 0 C19 2.97 19 5.94 19 9 C17.741875 8.9175 16.48375 8.835 15.1875 8.75 C13.00676926 8.68277201 13.00676926 8.68277201 11 9 C9.08743288 10.88077873 9.08743288 10.88077873 8 13 C7.34 13 6.68 13 6 13 C6 12.34 6 11.68 6 11 C4.35 11 2.7 11 1 11 C-0.20272819 8.59454362 -0.10071472 7.05003047 -0.0625 4.375 C-0.05347656 3.55773437 -0.04445313 2.74046875 -0.03515625 1.8984375 C-0.02355469 1.27195313 -0.01195313 0.64546875 0 0 Z " fill="#8EC2C7" transform="translate(73,177)"/>
<path d="M0 0 C0.33 0.99 0.66 1.98 1 3 C4.47147842 3.74957157 4.47147842 3.74957157 8 4 C8.99 4.33 9.98 4.66 11 5 C10.67 6.65 10.34 8.3 10 10 C3.33333333 10 -3.33333333 10 -10 10 C-9.67 7.69 -9.34 5.38 -9 3 C-6.03 2.01 -3.06 1.02 0 0 Z " fill="#B9E1E6" transform="translate(184,176)"/>
<path d="M0 0 C6.74435205 -0.05074705 13.48865477 -0.0857534 20.2331543 -0.10986328 C22.52711833 -0.11991528 24.82106957 -0.1335589 27.11499023 -0.15087891 C30.41393188 -0.17516209 33.71270397 -0.18649123 37.01171875 -0.1953125 C38.03585373 -0.20563507 39.05998871 -0.21595764 40.11515808 -0.22659302 C41.07577652 -0.22674408 42.03639496 -0.22689514 43.02612305 -0.22705078 C43.86773483 -0.231492 44.70934662 -0.23593323 45.57646179 -0.24050903 C48.33648004 0.03339188 50.48143665 0.86584159 53 2 C53 2.66 53 3.32 53 4 C52.43860825 3.83865067 51.87721649 3.67730133 51.29881287 3.51106262 C48.87270451 2.97170019 46.70279478 2.85250153 44.21899414 2.82299805 C43.27443863 2.81016281 42.32988312 2.79732758 41.35670471 2.78410339 C40.34309372 2.77671646 39.32948273 2.76932953 38.28515625 2.76171875 C37.23726425 2.753647 36.18937225 2.74557526 35.10972595 2.73725891 C32.89486333 2.72344017 30.67997962 2.71270816 28.46508789 2.70483398 C25.07853083 2.68758167 21.69294028 2.64367041 18.30664062 2.59960938 C16.153653 2.58948537 14.0006571 2.58096836 11.84765625 2.57421875 C10.83606949 2.55671066 9.82448273 2.53920258 8.78224182 2.52116394 C4.36042286 2.53481407 1.74561756 2.55224271 -2.10644531 4.86547852 C-4.26440623 7.29805359 -5.0273068 9.1092272 -5.8125 12.25 C-6.04582031 13.14203125 -6.27914062 14.0340625 -6.51953125 14.953125 C-6.67808594 15.62859375 -6.83664063 16.3040625 -7 17 C-8.38069933 12.59162428 -7.54846506 9.26507042 -6 5 C-4.5625 3 -4.5625 3 -3 2 C-2.01 2 -1.02 2 0 2 C0 1.34 0 0.68 0 0 Z " fill="#ACE8EC" transform="translate(98,41)"/>
<path d="M0 0 C0.33 1.32 0.66 2.64 1 4 C-3.95 4 -8.9 4 -14 4 C-14.33 3.34 -14.66 2.68 -15 2 C-15.33 2.99 -15.66 3.98 -16 5 C-15.34 5 -14.68 5 -14 5 C-13.75 12.625 -13.75 12.625 -16 16 C-16.66 16 -17.32 16 -18 16 C-18 10.72 -18 5.44 -18 0 C-3.53571429 -1.20535714 -3.53571429 -1.20535714 0 0 Z " fill="#472B55" transform="translate(138,126)"/>
<path d="M0 0 C3.96 0 7.92 0 12 0 C12 3.96 12 7.92 12 12 C10.02 12.99 10.02 12.99 8 14 C6.4375 12.875 6.4375 12.875 5 11 C5.3125 7.8125 5.3125 7.8125 6 5 C4.02 5 2.04 5 0 5 C0 3.35 0 1.7 0 0 Z " fill="#4E3556" transform="translate(58,137)"/>
<path d="M0 0 C1.65 0 3.3 0 5 0 C5 6.93 5 13.86 5 21 C3.35 21 1.7 21 0 21 C0 14.07 0 7.14 0 0 Z " fill="#432B4C" transform="translate(147,132)"/>
<path d="M0 0 C0.86454803 -0.00960754 1.72909607 -0.01921509 2.61984253 -0.02911377 C3.55111969 -0.03336365 4.48239685 -0.03761353 5.44189453 -0.04199219 C6.4024173 -0.04769226 7.36294006 -0.05339233 8.35256958 -0.05926514 C10.38510029 -0.06871176 12.4176463 -0.07524778 14.45019531 -0.07910156 C17.5557736 -0.08880801 20.66069029 -0.11983505 23.76611328 -0.15136719 C25.74136977 -0.15789736 27.71663099 -0.16314777 29.69189453 -0.16699219 C30.61912323 -0.17933899 31.54635193 -0.19168579 32.50167847 -0.20440674 C37.35468876 -0.18768248 40.81807006 -0.1073082 44.69970703 3.16113281 C46.01220703 5.84863281 46.01220703 5.84863281 46.69970703 8.16113281 C46.03970703 8.82113281 45.37970703 9.48113281 44.69970703 10.16113281 C42.99130422 8.52700838 41.76517656 7.29207188 40.69970703 5.16113281 C39.37970703 5.16113281 38.05970703 5.16113281 36.69970703 5.16113281 C36.69970703 3.84113281 36.69970703 2.52113281 36.69970703 1.16113281 C35.89791016 1.23332031 35.09611328 1.30550781 34.27001953 1.37988281 C26.42691776 2.02013602 18.69672097 2.25059355 10.83105469 2.12402344 C6.97949825 2.07952645 3.44221494 2.21253675 -0.30029297 3.16113281 C-0.30029297 2.50113281 -0.30029297 1.84113281 -0.30029297 1.16113281 C-0.96029297 1.16113281 -1.62029297 1.16113281 -2.30029297 1.16113281 C-2.63029297 2.15113281 -2.96029297 3.14113281 -3.30029297 4.16113281 C-3.63029297 3.50113281 -3.96029297 2.84113281 -4.30029297 2.16113281 C-5.29029297 1.83113281 -6.28029297 1.50113281 -7.30029297 1.16113281 C-4.53933104 0.24081217 -2.85078626 0.02561503 0 0 Z " fill="#3EC1CE" transform="translate(107.30029296875,42.8388671875)"/>
<path d="M0 0 C1.529043 2.038724 3.0373834 4.05688779 4.4375 6.1875 C6.23710466 8.2750414 7.31498405 8.62965297 10 9 C10 11.64 10 14.28 10 17 C8.576875 17.3403125 8.576875 17.3403125 7.125 17.6875 C3.88437155 18.68015869 3.88437155 18.68015869 2.6875 21.25 C1.96110665 24.1555734 1.41386187 27.03398996 1 30 C-0.89213369 27.61426621 -2.02391783 25.92824652 -3 23 C-2.236875 22.2575 -1.47375 21.515 -0.6875 20.75 C1.4393702 18.5736677 3.2559956 16.47832204 5 14 C4.34 13.01 3.68 12.02 3 11 C3 9.68 3 8.36 3 7 C2.01 7 1.02 7 0 7 C-1.04449911 3.86650268 -0.93423645 3.01031744 0 0 Z " fill="#5C5C8B" transform="translate(155,62)"/>
<path d="M0 0 C1.32 0 2.64 0 4 0 C3.67 0.66 3.34 1.32 3 2 C2.34 1.67 1.68 1.34 1 1 C1 3.97 1 6.94 1 10 C0.01 10 -0.98 10 -2 10 C-2 11.32 -2 12.64 -2 14 C-2.99 14 -3.98 14 -5 14 C-5 13.34 -5 12.68 -5 12 C-6.65 11.67 -8.3 11.34 -10 11 C-10 12.32 -10 13.64 -10 15 C-10.99 15 -11.98 15 -13 15 C-13 14.34 -13 13.68 -13 13 C-17.455 12.01 -17.455 12.01 -22 11 C-21.67 10.34 -21.34 9.68 -21 9 C-18.36 9.33 -15.72 9.66 -13 10 C-13 8.02 -13 6.04 -13 4 C-12.34 4.33 -11.68 4.66 -11 5 C-11 6.65 -11 8.3 -11 10 C-8.69 10 -6.38 10 -4 10 C-3.67 9.34 -3.34 8.68 -3 8 C-3.99 8 -4.98 8 -6 8 C-5.67 6.35 -5.34 4.7 -5 3 C-4.67 3.66 -4.34 4.32 -4 5 C-2.68 4.67 -1.36 4.34 0 4 C0 2.68 0 1.36 0 0 Z " fill="#DCEAEC" transform="translate(105,176)"/>
<path d="M0 0 C0.66 0.33 1.32 0.66 2 1 C2 2.32 2 3.64 2 5 C3.98 5.66 5.96 6.32 8 7 C8.33 6.01 8.66 5.02 9 4 C9.66 4 10.32 4 11 4 C11 3.34 11 2.68 11 2 C11.66 2 12.32 2 13 2 C13.33 2.66 13.66 3.32 14 4 C15.32 3.34 16.64 2.68 18 2 C16.37660195 3.70884005 14.70680947 5.37446717 13 7 C12.34 7 11.68 7 11 7 C11 7.66 11 8.32 11 9 C10.34 9 9.68 9 9 9 C9 10.65 9 12.3 9 14 C6 12 6 12 5 9 C1.37 9 -2.26 9 -6 9 C-4.25618453 5.51236907 -2.47193291 2.96631949 0 0 Z " fill="#5181AD" transform="translate(91,63)"/>
<path d="M0 0 C2 2 2 2 2.25 5 C2 8 2 8 0 10 C-3 10.25 -3 10.25 -6 10 C-6.66 9.34 -7.32 8.68 -8 8 C-7.75 4.4375 -7.75 4.4375 -7 1 C-4.48718205 -0.25640898 -2.78302919 -0.20872719 0 0 Z " fill="#969696" transform="translate(116,161)"/>
<path d="M0 0 C0.28875 0.598125 0.5775 1.19625 0.875 1.8125 C3.45592449 6.83096429 5.80806882 7.98091565 11 10 C11 10.99 11 11.98 11 13 C8.03 12.67 5.06 12.34 2 12 C2 13.32 2 14.64 2 16 C1.01 16 0.02 16 -1 16 C-2.17327203 11.16025288 -2.9302313 6.26743879 -1 1.5625 C-0.67 1.046875 -0.34 0.53125 0 0 Z " fill="#DBD7DB" transform="translate(97,136)"/>
<path d="M0 0 C-0.4452885 5.27315333 -1.08373163 10.01770224 -3 15 C-4.875 14.75 -4.875 14.75 -7 14 C-7.28875 13.34 -7.5775 12.68 -7.875 12 C-8.24625 11.34 -8.6175 10.68 -9 10 C-12.05908413 9.18415432 -12.05908413 9.18415432 -15 9 C-15.33 7.35 -15.66 5.7 -16 4 C-12.22272911 5.81309003 -8.62730178 7.9073259 -5 10 C-5.0825 9.0925 -5.165 8.185 -5.25 7.25 C-5 4 -5 4 -3.0625 1.625 C-1 0 -1 0 0 0 Z " fill="#47649A" transform="translate(119,76)"/>
<path d="M0 0 C2.4375 1 2.4375 1 4 2 C3.67 3.32 3.34 4.64 3 6 C0.36 5.67 -2.28 5.34 -5 5 C-5.33 6.32 -5.66 7.64 -6 9 C-6 7.35 -6 5.7 -6 4 C-7.32 4.33 -8.64 4.66 -10 5 C-10 5.99 -10 6.98 -10 8 C-9.01 7.67 -8.02 7.34 -7 7 C-7.33 8.65 -7.66 10.3 -8 12 C-10.19653565 10.26107595 -10.93493775 9.36248966 -11.4375 6.5625 C-11 4 -11 4 -9.4375 1.6875 C-6.11272628 -0.61426642 -3.96808477 -0.42515194 0 0 Z " fill="#4C3558" transform="translate(109,131)"/>
<path d="M0 0 C2.33294775 -0.04241723 4.66702567 -0.04092937 7 0 C8 1 8 1 8.1328125 2.8125 C8.13023438 3.534375 8.12765625 4.25625 8.125 5 C8.12757812 5.721875 8.13015625 6.44375 8.1328125 7.1875 C8 9 8 9 7 10 C4.66702567 10.04092937 2.33294775 10.04241723 0 10 C0 6.7 0 3.4 0 0 Z " fill="#A5A5A5" transform="translate(73,161)"/>
<path d="M0 0 C7.75 -0.125 7.75 -0.125 10 1 C10 2.98 10 4.96 10 7 C6.78548731 8.60725635 3.56387464 8.05748185 0 8 C0 5.36 0 2.72 0 0 Z " fill="#EBE3EF" transform="translate(125,130)"/>
<path d="M0 0 C1.98 0.99 1.98 0.99 4 2 C4 7.94 4 13.88 4 20 C2.68 20 1.36 20 0 20 C0 13.4 0 6.8 0 0 Z " fill="#442B4D" transform="translate(194,132)"/>
<path d="M0 0 C0 1.65 0 3.3 0 5 C0.66 5.33 1.32 5.66 2 6 C-0.25 8.5 -0.25 8.5 -3 11 C-4.32 11 -5.64 11 -7 11 C-7.33 13.31 -7.66 15.62 -8 18 C-8.33 18 -8.66 18 -9 18 C-9.6782872 12.57370236 -9.46624833 8.97662398 -6.125 4.5 C-2.42857143 0 -2.42857143 0 0 0 Z " fill="#51395A" transform="translate(52,125)"/>
<path d="M0 0 C0.66 0 1.32 0 2 0 C1.52695318 4.25742137 -0.8863822 6.25705098 -4 9 C-4.99 9.33 -5.98 9.66 -7 10 C-7 10.99 -7 11.98 -7 13 C-8.32 13 -9.64 13 -11 13 C-11.0625 9.8125 -11.0625 9.8125 -10 6 C-7.20062504 3.87763319 -4.17376554 2.47702166 -1 1 C-0.67 0.67 -0.34 0.34 0 0 Z " fill="#33B7CD" transform="translate(112,64)"/>
<path d="M0 0 C0 1.98 0 3.96 0 6 C-0.66 6 -1.32 6 -2 6 C-2 4.35 -2 2.7 -2 1 C-2.66 1 -3.32 1 -4 1 C-4 2.65 -4 4.3 -4 6 C-6.64 6 -9.28 6 -12 6 C-12 4.02 -12 2.04 -12 0 C-7.74433453 -1.16063604 -4.3164922 -0.76173392 0 0 Z " fill="#9BCCD1" transform="translate(162,180)"/>
<path d="M0 0 C0.66 0.33 1.32 0.66 2 1 C1.67 3.64 1.34 6.28 1 9 C1.5775 9.0825 2.155 9.165 2.75 9.25 C5.6159304 10.20531013 6.9990764 11.78469173 9 14 C8.67 14.99 8.34 15.98 8 17 C7.67 16.01 7.34 15.02 7 14 C4.48509059 12.64058951 2.80486517 11.90244059 -0.0625 12.25 C-2.1187389 13.04596344 -4.05678373 13.95899128 -6 15 C-5.67 13.02 -5.34 11.04 -5 9 C-4.34 9 -3.68 9 -3 9 C-2.87625 8.2575 -2.7525 7.515 -2.625 6.75 C-2.04513299 4.19858515 -1.26291261 2.2732427 0 0 Z " fill="#4381AC" transform="translate(131,60)"/>
<path d="M0 0 C0.66 0 1.32 0 2 0 C2.33 0.99 2.66 1.98 3 3 C4.32 3 5.64 3 7 3 C6.938125 3.78375 6.87625 4.5675 6.8125 5.375 C6.874375 6.24125 6.93625 7.1075 7 8 C7.99 8.66 8.98 9.32 10 10 C9.01 11.485 9.01 11.485 8 13 C7.34 13 6.68 13 6 13 C6 12.34 6 11.68 6 11 C4.35 11 2.7 11 1 11 C-0.20272819 8.59454362 -0.10071472 7.05003047 -0.0625 4.375 C-0.05347656 3.55773437 -0.04445313 2.74046875 -0.03515625 1.8984375 C-0.02355469 1.27195313 -0.01195313 0.64546875 0 0 Z " fill="#CBE5E6" transform="translate(73,177)"/>
<path d="M0 0 C0.66 0 1.32 0 2 0 C2.33 1.98 2.66 3.96 3 6 C3.66 6 4.32 6 5 6 C5.33 4.02 5.66 2.04 6 0 C9 1 9 1 10.1875 3.0625 C10.455625 3.701875 10.72375 4.34125 11 5 C11.66 3.35 12.32 1.7 13 0 C13.66 0 14.32 0 15 0 C14.01 3.3 13.02 6.6 12 10 C9 9 9 9 7 6 C6.34 7.32 5.68 8.64 5 10 C4.34 10 3.68 10 3 10 C2.49596232 8.70990357 1.99690074 7.41786211 1.5 6.125 C1.2215625 5.40570313 0.943125 4.68640625 0.65625 3.9453125 C0 2 0 2 0 0 Z " fill="#999999" transform="translate(46,161)"/>
<path d="M0 0 C0.66 0.66 1.32 1.32 2 2 C1.67 2.99 1.34 3.98 1 5 C1.66 5 2.32 5 3 5 C3.33 3.68 3.66 2.36 4 1 C11 1 11 1 14 2 C13.67 3.65 13.34 5.3 13 7 C8.71 7 4.42 7 0 7 C0 4.69 0 2.38 0 0 Z " fill="#9BC6CA" transform="translate(181,179)"/>
<path d="M0 0 C2.64 0 5.28 0 8 0 C8 0.99 8 1.98 8 3 C6.35 2.67 4.7 2.34 3 2 C3 3.32 3 4.64 3 6 C5.31 6.33 7.62 6.66 10 7 C10.33 5.35 10.66 3.7 11 2 C11.66 2 12.32 2 13 2 C13 3.98 13 5.96 13 8 C10.75135275 8.22245975 8.50097377 8.42746557 6.25 8.625 C4.99703125 8.74101562 3.7440625 8.85703125 2.453125 8.9765625 C-0.83586903 8.99888599 -2.31020776 8.77961002 -5 7 C-4.34 7 -3.68 7 -3 7 C-3 5.35 -3 3.7 -3 2 C-2.34 2 -1.68 2 -1 2 C-1 3.65 -1 5.3 -1 7 C-0.34 7 0.32 7 1 7 C0.67 4.69 0.34 2.38 0 0 Z " fill="#CFEAEE" transform="translate(161,179)"/>
<path d="M0 0 C2.31 0 4.62 0 7 0 C8.125 4.75 8.125 4.75 7 7 C7.33 7.99 7.66 8.98 8 10 C7.01 9.67 6.02 9.34 5 9 C5 8.34 5 7.68 5 7 C4.01 7 3.02 7 2 7 C2 7.99 2 8.98 2 10 C1.34 10 0.68 10 0 10 C0 6.7 0 3.4 0 0 Z " fill="#A8A8A8" transform="translate(132,161)"/>
<path d="M0 0 C2.31 0 4.62 0 7 0 C8.125 4.75 8.125 4.75 7 7 C7.33 7.99 7.66 8.98 8 10 C7.01 9.67 6.02 9.34 5 9 C5 8.34 5 7.68 5 7 C3.68 7 2.36 7 1 7 C0.67 7.99 0.34 8.98 0 10 C0 6.7 0 3.4 0 0 Z " fill="#A3A3A3" transform="translate(98,161)"/>
<path d="M0 0 C0.99 0 1.98 0 3 0 C3 0.99 3 1.98 3 3 C3.99 3.33 4.98 3.66 6 4 C3.69 4 1.38 4 -1 4 C-1 7.3 -1 10.6 -1 14 C-2.65 14 -4.3 14 -6 14 C-5.67 10.7 -5.34 7.4 -5 4 C-4.01 3.67 -3.02 3.34 -2 3 C-1.34 2.01 -0.68 1.02 0 0 Z " fill="#3F2449" transform="translate(125,139)"/>
<path d="M0 0 C2.31 0 4.62 0 7 0 C8.2380014 3.57644848 7.74926071 6.33694766 7 10 C5.02 9.01 3.04 8.02 1 7 C0.67 7.99 0.34 8.98 0 10 C0 6.7 0 3.4 0 0 Z " fill="#B4B4B4" transform="translate(191,161)"/>
<path d="M0 0 C0.33 0 0.66 0 1 0 C0.75398041 4.18233304 0.37939366 6.50136834 -2.1875 9.875 C-5.25944948 12.19602849 -7.20135193 12.73497804 -11 13 C-11.33 12.01 -11.66 11.02 -12 10 C-10.02 9.67 -8.04 9.34 -6 9 C-5.896875 8.360625 -5.79375 7.72125 -5.6875 7.0625 C-5.460625 6.381875 -5.23375 5.70125 -5 5 C-4.01 4.67 -3.02 4.34 -2 4 C-0.79117904 1.99983534 -0.79117904 1.99983534 0 0 Z " fill="#4D2A5A" transform="translate(153,94)"/>
<path d="M0 0 C4.65078045 0.28186548 7.20117979 2.47603185 10.64453125 5.33203125 C12 7 12 7 12 11 C10.68 11 9.36 11 8 11 C7.67 9.35 7.34 7.7 7 6 C4.03 5.505 4.03 5.505 1 5 C0.67 3.35 0.34 1.7 0 0 Z " fill="#35BBD0" transform="translate(133,65)"/>
<path d="M0 0 C2.31 0 4.62 0 7 0 C7.625 2.375 7.625 2.375 8 5 C7.34 5.66 6.68 6.32 6 7 C4.68 7 3.36 7 2 7 C2 7.99 2 8.98 2 10 C1.34 10 0.68 10 0 10 C0 6.7 0 3.4 0 0 Z " fill="#A6A6A6" transform="translate(88,161)"/>
<path d="M0 0 C0.66 0.33 1.32 0.66 2 1 C1.67 7.6 1.34 14.2 1 21 C2.32 21 3.64 21 5 21 C5 15.72 5 10.44 5 5 C5.33 5 5.66 5 6 5 C6 10.61 6 16.22 6 22 C4.02 22 2.04 22 0 22 C-0.33 17.05 -0.66 12.1 -1 7 C-2.65 6.67 -4.3 6.34 -6 6 C-5.38125 5.566875 -4.7625 5.13375 -4.125 4.6875 C-1.7802755 3.00259517 -1.7802755 3.00259517 0 0 Z " fill="#614F69" transform="translate(193,131)"/>
<path d="M0 0 C0.33 0.66 0.66 1.32 1 2 C1.99 1.67 2.98 1.34 4 1 C2.25192871 6.46737191 0.34205919 11.75824848 -2 17 C-2.99 17 -3.98 17 -5 17 C-3.83348574 11.07136283 -2.24480642 5.61201606 0 0 Z " fill="#3EA6C6" transform="translate(121,74)"/>
<path d="M0 0 C0 0.66 0 1.32 0 2 C1.32 2.33 2.64 2.66 4 3 C2.576875 3.0928125 2.576875 3.0928125 1.125 3.1875 C0.09375 3.455625 -0.9375 3.72375 -2 4 C-3.45291273 6.46255685 -3.45291273 6.46255685 -4 9 C-4.99 9 -5.98 9 -7 9 C-6.67 7.35 -6.34 5.7 -6 4 C-8.31 3.67 -10.62 3.34 -13 3 C-13 2.67 -13 2.34 -13 2 C-11.5882217 1.46605821 -10.17029756 0.94834896 -8.75 0.4375 C-7.96109375 0.14746094 -7.1721875 -0.14257812 -6.359375 -0.44140625 C-3.80896548 -1.04522837 -2.44677771 -0.8473932 0 0 Z " fill="#DFE0DF" transform="translate(111,158)"/>
<path d="M0 0 C3.3 0.33 6.6 0.66 10 1 C10 2.65 10 4.3 10 6 C8.68 4.68 7.36 3.36 6 2 C6 3.65 6 5.3 6 7 C3.69 7 1.38 7 -1 7 C-1 3 -1 3 0 0 Z " fill="#8EC3C9" transform="translate(128,179)"/>
<path d="M0 0 C1.98 0 3.96 0 6 0 C6.625 2.3125 6.625 2.3125 7 5 C6.01 6.485 6.01 6.485 5 8 C2.375 8.1875 2.375 8.1875 0 8 C0 5.36 0 2.72 0 0 Z " fill="#8ABDBD" transform="translate(48,178)"/>
<path d="M0 0 C1.65 0.99 3.3 1.98 5 3 C5.680625 2.2575 5.680625 2.2575 6.375 1.5 C8 0 8 0 10 0 C10 3.3 10 6.6 10 10 C9.34 10 8.68 10 8 10 C7.67 8.35 7.34 6.7 7 5 C6.01 5.66 5.02 6.32 4 7 C3.34 6.34 2.68 5.68 2 5 C1.67 6.65 1.34 8.3 1 10 C0.67 10 0.34 10 0 10 C0 6.7 0 3.4 0 0 Z " fill="#909090" transform="translate(155,161)"/>
<path d="M0 0 C0.66 0 1.32 0 2 0 C3.625 2 3.625 2 5 4 C5.45375 3.34 5.9075 2.68 6.375 2 C6.91125 1.34 7.4475 0.68 8 0 C8.66 0 9.32 0 10 0 C10 3.3 10 6.6 10 10 C9.34 10 8.68 10 8 10 C7.67 8.35 7.34 6.7 7 5 C6.01 5.66 5.02 6.32 4 7 C3.67 6.01 3.34 5.02 3 4 C2.34 4 1.68 4 1 4 C1 5.98 1 7.96 1 10 C0.67 10 0.34 10 0 10 C0 6.7 0 3.4 0 0 Z " fill="#878787" transform="translate(168,161)"/>
<path d="M0 0 C0.99 0.33 1.98 0.66 3 1 C3.94921875 3.06640625 3.94921875 3.06640625 4.6875 5.5625 C5.06455078 6.80193359 5.06455078 6.80193359 5.44921875 8.06640625 C5.63097656 8.70449219 5.81273437 9.34257812 6 10 C5.34 10 4.68 10 4 10 C4 9.34 4 8.68 4 8 C2.02 8 0.04 8 -2 8 C-2 8.66 -2 9.32 -2 10 C-2.66 9.67 -3.32 9.34 -4 9 C-2.68 6.03 -1.36 3.06 0 0 Z " fill="#979797" transform="translate(146,161)"/>
<path d="M0 0 C1.44010481 0.25662245 2.8770687 0.53090821 4.3125 0.8125 C5.11300781 0.96332031 5.91351563 1.11414063 6.73828125 1.26953125 C9.23445587 2.07572236 10.32422106 3.02052002 12 5 C10.33438601 6.66561399 8.34037295 6.17115945 6.0625 6.1875 C5.16660156 6.20167969 4.27070312 6.21585938 3.34765625 6.23046875 C1 6 1 6 -1 4 C-0.625 1.875 -0.625 1.875 0 0 Z " fill="#412647" transform="translate(99,147)"/>
<path d="M0 0 C1.32 0.33 2.64 0.66 4 1 C3.34 2.32 2.68 3.64 2 5 C2.66 5 3.32 5 4 5 C4.25 12.625 4.25 12.625 2 16 C1.34 16 0.68 16 0 16 C0 10.72 0 5.44 0 0 Z " fill="#41244E" transform="translate(120,126)"/>
<path d="M0 0 C4.29 0 8.58 0 13 0 C13 2.31 13 4.62 13 7 C11.02 7.99 11.02 7.99 9 9 C9 7.35 9 5.7 9 4 C8.34 3.67 7.68 3.34 7 3 C7 4.65 7 6.3 7 8 C6.6596875 7.071875 6.6596875 7.071875 6.3125 6.125 C4.62070165 3.38589791 3.00755839 2.94975528 0 2 C0 1.34 0 0.68 0 0 Z " fill="#D7EBEE" transform="translate(185,177)"/>
<path d="M0 0 C1.1446875 0.2475 1.1446875 0.2475 2.3125 0.5 C5.00856207 1.00159294 6.44020291 0.8532657 9 0 C8.34 1.98 7.68 3.96 7 6 C4.69 6 2.38 6 0 6 C-0.38218767 4.34385343 -0.71395102 2.67542976 -1 1 C-0.67 0.67 -0.34 0.34 0 0 Z " fill="#A3D1D5" transform="translate(164,180)"/>
<path d="M0 0 C1.98 0 3.96 0 6 0 C5.5840831 2.41231801 5.35112512 3.68617055 3.4921875 5.34765625 C1.57066007 7.47542092 1.58022305 8.79816279 1.4375 11.625 C1.30859375 14.0390625 1.30859375 14.0390625 1 16 C0.34 16.33 -0.32 16.66 -1 17 C-1 12.71 -1 8.42 -1 4 C-0.34 4 0.32 4 1 4 C0.67 2.68 0.34 1.36 0 0 Z " fill="#EDECEE" transform="translate(166,154)"/>
<path d="M0 0 C0.78375 0.04125 1.5675 0.0825 2.375 0.125 C0.395 1.115 0.395 1.115 -1.625 2.125 C-0.635 2.785 0.355 3.445 1.375 4.125 C1.705 4.785 2.035 5.445 2.375 6.125 C0.22332931 8.59942129 -1.34287754 9.68738367 -4.625 10.125 C-4.955 9.795 -5.285 9.465 -5.625 9.125 C-4.81630435 0.22934783 -4.81630435 0.22934783 0 0 Z " fill="#D6CED4" transform="translate(167.625,135.875)"/>
<path d="M0 0 C0.66 0.99 1.32 1.98 2 3 C1.34 4.32 0.68 5.64 0 7 C0.66 7.33 1.32 7.66 2 8 C1.34 8 0.68 8 0 8 C-0.33 8.66 -0.66 9.32 -1 10 C-3.64 8.68 -6.28 7.36 -9 6 C-9 5.01 -9 4.02 -9 3 C-6.36 3 -3.72 3 -1 3 C-0.67 2.01 -0.34 1.02 0 0 Z " fill="#D7D2DB" transform="translate(113,133)"/>
<path d="M0 0 C1.57156655 3.1431331 0.11705576 5.365464 -0.9375 8.625 C-1.31777344 9.81351563 -1.69804688 11.00203125 -2.08984375 12.2265625 C-2.39019531 13.14179687 -2.69054687 14.05703125 -3 15 C-3.144375 14.401875 -3.28875 13.80375 -3.4375 13.1875 C-4.16218258 9.81112801 -4.16218258 9.81112801 -6 7 C-6.04063832 5.33382885 -6.042721 3.66611905 -6 2 C-5.01 2 -4.02 2 -3 2 C-2.01 1.34 -1.02 0.68 0 0 Z " fill="#418CB2" transform="translate(124,62)"/>
<path d="M0 0 C0.66 0 1.32 0 2 0 C2.33 0.66 2.66 1.32 3 2 C7.455 1.505 7.455 1.505 12 1 C12 2.32 12 3.64 12 5 C9.22899606 6.38550197 7.0665294 6.1877467 4 6 C1 4 1 4 0.3125 1.875 C0.209375 1.25625 0.10625 0.6375 0 0 Z " fill="#E4DEE4" transform="translate(51,142)"/>
<path d="M0 0 C0.94875 0.04125 1.8975 0.0825 2.875 0.125 C2.875 0.785 2.875 1.445 2.875 2.125 C0.895 2.455 -1.085 2.785 -3.125 3.125 C-2.795 4.775 -2.465 6.425 -2.125 8.125 C-1.135 8.125 -0.145 8.125 0.875 8.125 C1.205 7.465 1.535 6.805 1.875 6.125 C1.215 5.795 0.555 5.465 -0.125 5.125 C0.865 5.125 1.855 5.125 2.875 5.125 C2.875 6.775 2.875 8.425 2.875 10.125 C-0.5 10.3125 -0.5 10.3125 -4.125 10.125 C-6.125 7.125 -6.125 7.125 -5.875 4.5625 C-4.73051297 0.84291716 -3.91822743 0.1567291 0 0 Z " fill="#8E8E8E" transform="translate(126.125,160.875)"/>
<path d="M0 0 C0.66 0 1.32 0 2 0 C2.33 0.66 2.66 1.32 3 2 C4.32 1.34 5.64 0.68 7 0 C5.37660195 1.70884005 3.70680947 3.37446717 2 5 C1.34 5 0.68 5 0 5 C0 5.66 0 6.32 0 7 C-0.66 7 -1.32 7 -2 7 C-2 8.65 -2 10.3 -2 12 C-2.99 11.34 -3.98 10.68 -5 10 C-4.690625 9.236875 -4.38125 8.47375 -4.0625 7.6875 C-3.32106407 5.81210323 -2.63771783 3.91315348 -2 2 C-1.34 2 -0.68 2 0 2 C0 1.34 0 0.68 0 0 Z " fill="#4185AE" transform="translate(102,65)"/>
<path d="M0 0 C1.2065625 0.0309375 1.2065625 0.0309375 2.4375 0.0625 C2.4375 2.3725 2.4375 4.6825 2.4375 7.0625 C0.7875 7.3925 -0.8625 7.7225 -2.5625 8.0625 C-2.94313221 5.7364143 -3.27519945 3.40194736 -3.5625 1.0625 C-2.5625 0.0625 -2.5625 0.0625 0 0 Z " fill="#9ACACD" transform="translate(145.5625,179.9375)"/>
<path d="M0 0 C2.64 0 5.28 0 8 0 C8 0.33 8 0.66 8 1 C6.02 1 4.04 1 2 1 C2 1.99 2 2.98 2 4 C3.65 4 5.3 4 7 4 C7 4.66 7 5.32 7 6 C5.35 6 3.7 6 2 6 C2 6.99 2 7.98 2 9 C3.65 9 5.3 9 7 9 C7 9.33 7 9.66 7 10 C4.69 10 2.38 10 0 10 C0 6.7 0 3.4 0 0 Z " fill="#959595" transform="translate(63,161)"/>
<path d="M0 0 C1.5625 1 1.5625 1 3 3 C3.06881101 5.85565675 2.59528685 8.16093962 2 11 C1.01 11.495 1.01 11.495 0 12 C0 10.02 0 8.04 0 6 C-0.66 6 -1.32 6 -2 6 C-2.66 6.66 -3.32 7.32 -4 8 C-4 6.35 -4 4.7 -4 3 C-4.66 2.67 -5.32 2.34 -6 2 C-4.02 2 -2.04 2 0 2 C0 1.34 0 0.68 0 0 Z " fill="#563E60" transform="translate(139,128)"/>
<path d="M0 0 C-0.33 1.32 -0.66 2.64 -1 4 C-0.01 4.33 0.98 4.66 2 5 C2 7.31 2 9.62 2 12 C0.02 12.99 0.02 12.99 -2 14 C-1.34 13.01 -0.68 12.02 0 11 C0.38499891 9.34450469 0.72793135 7.6777567 1 6 C0.443125 5.773125 -0.11375 5.54625 -0.6875 5.3125 C-3.63246684 3.64103234 -5.68156544 1.44723648 -8 -1 C-4.37673261 -2.2077558 -3.35853631 -1.54311128 0 0 Z " fill="#3E8CB2" transform="translate(145,66)"/>
<path d="M0 0 C1.67542976 0.28604898 3.34385343 0.61781233 5 1 C5 1.99 5 2.98 5 4 C5.99 4 6.98 4 8 4 C7.67 4.99 7.34 5.98 7 7 C4.69 6.67 2.38 6.34 0 6 C-0.38218767 4.34385343 -0.71395102 2.67542976 -1 1 C-0.67 0.67 -0.34 0.34 0 0 Z " fill="#ACD9D9" transform="translate(94,180)"/>
<path d="M0 0 C0 2.97 0 5.94 0 9 C-0.66 9 -1.32 9 -2 9 C-2 7.68 -2 6.36 -2 5 C-2.99 5 -3.98 5 -5 5 C-5 6.32 -5 7.64 -5 9 C-5.66 9 -6.32 9 -7 9 C-7.3125 6.1875 -7.3125 6.1875 -7 3 C-4.61107499 1.11400657 -3.08148442 0 0 0 Z " fill="#A7CBD0" transform="translate(69,177)"/>
<path d="M0 0 C0.33 0 0.66 0 1 0 C1.05383848 2.45862401 1.09359038 4.9160755 1.125 7.375 C1.14175781 8.07367188 1.15851563 8.77234375 1.17578125 9.4921875 C1.19344267 11.32897486 1.10303261 13.16601963 1 15 C0.34 15.66 -0.32 16.32 -1 17 C-2.32 17 -3.64 17 -5 17 C-5 16.34 -5 15.68 -5 15 C-4.34 15 -3.68 15 -3 15 C-2.95101562 14.16855469 -2.90203125 13.33710938 -2.8515625 12.48046875 C-2.77679688 11.39378906 -2.70203125 10.30710938 -2.625 9.1875 C-2.52058594 7.56908203 -2.52058594 7.56908203 -2.4140625 5.91796875 C-2 3 -2 3 0 0 Z " fill="#D8D1DB" transform="translate(87,131)"/>
<path d="M0 0 C1.2065625 0.0309375 1.2065625 0.0309375 2.4375 0.0625 C2.4375 2.0425 2.4375 4.0225 2.4375 6.0625 C0.78135343 6.44468767 -0.88707024 6.77645102 -2.5625 7.0625 C-3.5625 6.0625 -3.5625 6.0625 -3.6875 3.5625 C-3.51717518 0.15600356 -3.41884482 0.08338646 0 0 Z " fill="#E3E3E3" transform="translate(113.5625,162.9375)"/>
<path d="M0 0 C2.52259061 1.97420135 2.9929808 2.96745642 3.6875 6.1875 C3.790625 7.115625 3.89375 8.04375 4 9 C0.31265242 11.45823172 -2.69699971 12.01242616 -7 13 C-6.34 10.69 -5.68 8.38 -5 6 C-4.34 6.66 -3.68 7.32 -3 8 C-3.33 8.66 -3.66 9.32 -4 10 C-2.68 9.67 -1.36 9.34 0 9 C0.33 6.69 0.66 4.38 1 2 C-0.32 1.67 -1.64 1.34 -3 1 C-2.01 0.67 -1.02 0.34 0 0 Z " fill="#CCE5E7" transform="translate(147,178)"/>
<path d="M0 0 C1.65 0.33 3.3 0.66 5 1 C4.649375 1.94875 4.29875 2.8975 3.9375 3.875 C2.64973223 6.87060172 2.64973223 6.87060172 4 9 C3.01 9.33 2.02 9.66 1 10 C-1.17288535 7.82711465 -1.64827002 6.98970481 -2 4 C-1.0625 1.75 -1.0625 1.75 0 0 Z " fill="#DBDBDB" transform="translate(140,163)"/>
<path d="M0 0 C1.32 1.32 2.64 2.64 4 4 C2.3125 5.625 2.3125 5.625 0 7 C-2.6875 6.375 -2.6875 6.375 -5 5 C-5.33 4.01 -5.66 3.02 -6 2 C-4.02 1.34 -2.04 0.68 0 0 Z " fill="#4D3756" transform="translate(172,146)"/>
<path d="M0 0 C0.061875 0.928125 0.061875 0.928125 0.125 1.875 C0.41375 2.57625 0.7025 3.2775 1 4 C3.99615946 5.3045656 3.99615946 5.3045656 7 6 C6.67 6.66 6.34 7.32 6 8 C3.36 8 0.72 8 -2 8 C-2 6.68 -2 5.36 -2 4 C-2.66 4 -3.32 4 -4 4 C-4 3.01 -4 2.02 -4 1 C-2 0 -2 0 0 0 Z " fill="#42264E" transform="translate(103,135)"/>
<path d="M0 0 C1 1.33333333 2 2.66666667 3 4 C3.556875 4.70125 4.11375 5.4025 4.6875 6.125 C6 8 6 8 6 10 C6.66 10 7.32 10 8 10 C8 11.32 8 12.64 8 14 C7.01 14 6.02 14 5 14 C3 11 3 11 3 7 C2.01 7 1.02 7 0 7 C-1.04449911 3.86650268 -0.93423645 3.01031744 0 0 Z " fill="#5275A5" transform="translate(155,62)"/>
<path d="M0 0 C2.31 0 4.62 0 7 0 C7 0.33 7 0.66 7 1 C5.35 1 3.7 1 2 1 C2 1.99 2 2.98 2 4 C3.65 4 5.3 4 7 4 C7 4.66 7 5.32 7 6 C5.02 6 3.04 6 1 6 C1 6.99 1 7.98 1 9 C2.98 9 4.96 9 7 9 C7 9.33 7 9.66 7 10 C4.69 10 2.38 10 0 10 C0 6.7 0 3.4 0 0 Z " fill="#929292" transform="translate(181,161)"/>
<path d="M0 0 C2.475 0.99 2.475 0.99 5 2 C5 2.66 5 3.32 5 4 C5.66 4 6.32 4 7 4 C6.6875 5.9375 6.6875 5.9375 6 8 C5.01 8.33 4.02 8.66 3 9 C0.9375 6.1875 0.9375 6.1875 -1 3 C-0.67 2.01 -0.34 1.02 0 0 Z " fill="#E0DCE0" transform="translate(137,141)"/>
<path d="M0 0 C0.66 0 1.32 0 2 0 C2 0.66 2 1.32 2 2 C4.31 2 6.62 2 9 2 C9 2.66 9 3.32 9 4 C6.72942623 4.05398987 4.45848712 4.09278742 2.1875 4.125 C0.29064453 4.15980469 0.29064453 4.15980469 -1.64453125 4.1953125 C-5 4 -5 4 -8 2 C-6.865625 1.855625 -5.73125 1.71125 -4.5625 1.5625 C-1.19222799 1.38828522 -1.19222799 1.38828522 0 0 Z " fill="#DDD5E0" transform="translate(86,151)"/>
<path d="M0 0 C0.515625 0.763125 1.03125 1.52625 1.5625 2.3125 C4.55847644 5.61575607 6.85712514 6.48625726 11 8 C10.67 8.66 10.34 9.32 10 10 C5.89696842 9.53374641 2.83253016 9.15936057 0 6 C-0.25 2.8125 -0.25 2.8125 0 0 Z " fill="#50325F" transform="translate(94,97)"/>
<path d="M0 0 C1.48484412 0.39595843 2.9628831 0.81750706 4.4375 1.25 C5.26121094 1.48203125 6.08492188 1.7140625 6.93359375 1.953125 C9 3 9 3 9.78515625 5.109375 C9.85605469 5.73328125 9.92695312 6.3571875 10 7 C8.35 7 6.7 7 5 7 C4.67 6.34 4.34 5.68 4 5 C1.98330173 3.86649466 1.98330173 3.86649466 0 3 C0 2.01 0 1.02 0 0 Z " fill="#E3DAE6" transform="translate(98,142)"/>
<path d="M0 0 C1.98 0.66 3.96 1.32 6 2 C6 2.99 6 3.98 6 5 C4.02 5.99 4.02 5.99 2 7 C0 5.625 0 5.625 -2 4 C-2 3.34 -2 2.68 -2 2 C-1.34 2 -0.68 2 0 2 C0 1.34 0 0.68 0 0 Z " fill="#4F385A" transform="translate(169,131)"/>
<path d="M0 0 C2.64 0 5.28 0 8 0 C8.33 0.99 8.66 1.98 9 3 C6.36 3 3.72 3 1 3 C1 3.66 1 4.32 1 5 C3.31 5 5.62 5 8 5 C8 5.33 8 5.66 8 6 C5.36 6 2.72 6 0 6 C0 4.02 0 2.04 0 0 Z " fill="#E1DDE2" transform="translate(125,132)"/>
<path d="M0 0 C2.51896049 1.119538 4.39734655 2.31981552 6.5625 4.0625 C8.92026019 6.16384349 8.92026019 6.16384349 12 7 C12 8.32 12 9.64 12 11 C11.01 10.67 10.02 10.34 9 10 C8.5978125 9.01 8.5978125 9.01 8.1875 8 C7.5996875 7.01 7.5996875 7.01 7 6 C3.94091587 5.18415432 3.94091587 5.18415432 1 5 C0.67 3.35 0.34 1.7 0 0 Z " fill="#475892" transform="translate(103,80)"/>
<path d="M0 0 C-0.33 1.32 -0.66 2.64 -1 4 C-3.64 3.67 -6.28 3.34 -9 3 C-9.33 4.32 -9.66 5.64 -10 7 C-10 5.02 -10 3.04 -10 1 C-3.375 -1.125 -3.375 -1.125 0 0 Z " fill="#5A4166" transform="translate(113,133)"/>
<path d="M0 0 C0.99 0.33 1.98 0.66 3 1 C3 3.97 3 6.94 3 10 C2.34 9.67 1.68 9.34 1 9 C1.33 7.35 1.66 5.7 2 4 C1.34 4 0.68 4 0 4 C0 5.32 0 6.64 0 8 C-0.66 8 -1.32 8 -2 8 C-2 5.69 -2 3.38 -2 1 C-1.34 0.67 -0.68 0.34 0 0 Z " fill="#D3EDF0" transform="translate(117,176)"/>
<path d="M0 0 C2.51083114 1.25541557 2.87125446 2.50063488 4 5 C4.66 3.35 5.32 1.7 6 0 C6.66 0 7.32 0 8 0 C7.01 3.3 6.02 6.6 5 10 C4.01 9.67 3.02 9.34 2 9 C1.26953125 6.93359375 1.26953125 6.93359375 0.8125 4.4375 C0.65394531 3.61121094 0.49539062 2.78492188 0.33203125 1.93359375 C0.16767578 0.97646484 0.16767578 0.97646484 0 0 Z " fill="#8C8C8C" transform="translate(53,161)"/>
<path d="M0 0 C2 2 2 2 2 5 C6.455 4.01 6.455 4.01 11 3 C8.75 5.5 8.75 5.5 6 8 C4.68 8 3.36 8 2 8 C-0.1519437 4.77208445 -0.20086443 3.71599191 0 0 Z " fill="#495690" transform="translate(130,81)"/>
<path d="M0 0 C0.66 0 1.32 0 2 0 C2.33 1.32 2.66 2.64 3 4 C2.34 4 1.68 4 1 4 C1 4.66 1 5.32 1 6 C-1.375 7.6875 -1.375 7.6875 -4 9 C-4.66 8.67 -5.32 8.34 -6 8 C-5.67 7.34 -5.34 6.68 -5 6 C-4.34 6 -3.68 6 -3 6 C-2.87625 5.38125 -2.7525 4.7625 -2.625 4.125 C-2 2 -2 2 0 0 Z " fill="#504E8B" transform="translate(125,82)"/>
<path d="M0 0 C0.33 0.66 0.66 1.32 1 2 C2.98 2 4.96 2 7 2 C5.33333333 3.66666667 3.66666667 5.33333333 2 7 C2 6.34 2 5.68 2 5 C-3.94 4.01 -3.94 4.01 -10 3 C-10 2.67 -10 2.34 -10 2 C-3.84765625 1.12109375 -3.84765625 1.12109375 -2 1 C-1.67 1.33 -1.34 1.66 -1 2 C-0.67 1.34 -0.34 0.68 0 0 Z " fill="#E2DDE4" transform="translate(145,151)"/>
<path d="M0 0 C1.70884005 1.62339805 3.37446717 3.29319053 5 5 C5 5.66 5 6.32 5 7 C2.69 7 0.38 7 -2 7 C-1.42415568 4.61435923 -0.77772405 2.33317216 0 0 Z " fill="#3F2C4A" transform="translate(137,146)"/>
<path d="M0 0 C1.32 0.66 2.64 1.32 4 2 C3.67 4.31 3.34 6.62 3 9 C1.68 8.67 0.36 8.34 -1 8 C-0.67 5.36 -0.34 2.72 0 0 Z " fill="#462756" transform="translate(136,132)"/>
<path d="M0 0 C1.98 0 3.96 0 6 0 C6 1.65 6 3.3 6 5 C4.02 5 2.04 5 0 5 C0 3.35 0 1.7 0 0 Z " fill="#4F3B5A" transform="translate(146,124)"/>
<path d="M0 0 C1.32 0 2.64 0 4 0 C4 2.64 4 5.28 4 8 C1.69 8.66 -0.62 9.32 -3 10 C-2.1875 8.0625 -2.1875 8.0625 -1 6 C-0.01 5.67 0.98 5.34 2 5 C2 3.68 2 2.36 2 1 C1.34 0.67 0.68 0.34 0 0 Z " fill="#5D7295" transform="translate(161,71)"/>
<path d="M0 0 C0.66 0.33 1.32 0.66 2 1 C1.65079365 6.41269841 1.65079365 6.41269841 1 9 C-0.9375 10.4375 -0.9375 10.4375 -3 11 C-3.99 11.495 -3.99 11.495 -5 12 C-5 11.01 -5 10.02 -5 9 C-4.34 9 -3.68 9 -3 9 C-2.87625 8.2575 -2.7525 7.515 -2.625 6.75 C-2.04513299 4.19858515 -1.26291261 2.2732427 0 0 Z " fill="#3C93B5" transform="translate(131,60)"/>
<path d="M0 0 C0.33 0 0.66 0 1 0 C1 1.65 1 3.3 1 5 C2.32 5 3.64 5 5 5 C5.33 4.01 5.66 3.02 6 2 C7.5 3.375 7.5 3.375 9 5 C9 5.66 9 6.32 9 7 C6.1875 7.625 6.1875 7.625 3 8 C2.01 7.34 1.02 6.68 0 6 C-0.1875 2.875 -0.1875 2.875 0 0 Z " fill="#3CA7C6" transform="translate(100,72)"/>
<path d="M0 0 C0.33 0 0.66 0 1 0 C0.38461538 6.52307692 0.38461538 6.52307692 -1.5625 8.9375 C-2.036875 9.288125 -2.51125 9.63875 -3 10 C-3.66 8.35 -4.32 6.7 -5 5 C-4.01 4.67 -3.02 4.34 -2 4 C-0.79117904 1.99983534 -0.79117904 1.99983534 0 0 Z " fill="#503563" transform="translate(153,94)"/>
<path d="M0 0 C0.598125 0.226875 1.19625 0.45375 1.8125 0.6875 C1.049375 1.14125 0.28625 1.595 -0.5 2.0625 C-4.25173872 5.72698898 -5.01226797 9.68082046 -6.1875 14.6875 C-7.57025003 10.27257668 -6.72630734 6.95995332 -5.1875 2.6875 C-3.479705 0.1258075 -3.07503044 -0.43929006 0 0 Z " fill="#C2EAF4" transform="translate(97.1875,43.3125)"/>
<path d="M0 0 C0.66 0 1.32 0 2 0 C2.33 0.99 2.66 1.98 3 3 C3.66 2.67 4.32 2.34 5 2 C5 4.31 5 6.62 5 9 C3.35 8.67 1.7 8.34 0 8 C0 5.36 0 2.72 0 0 Z " fill="#8BBEBF" transform="translate(73,177)"/>
<path d="M0 0 C1.98 0 3.96 0 6 0 C6 2.31 6 4.62 6 7 C4.35 7 2.7 7 1 7 C1 5.35 1 3.7 1 2 C1.99 2.33 2.98 2.66 4 3 C4.33 2.34 4.66 1.68 5 1 C3.35 1 1.7 1 0 1 C0 0.67 0 0.34 0 0 Z " fill="#BDE1E5" transform="translate(133,179)"/>
<path d="M0 0 C2.97 0.33 5.94 0.66 9 1 C8.67 2.65 8.34 4.3 8 6 C9.32 6.66 10.64 7.32 12 8 C9 8 9 8 6 7 C6 5.68 6 4.36 6 3 C4.02 2.34 2.04 1.68 0 1 C0 0.67 0 0.34 0 0 Z " fill="#5E4564" transform="translate(101,143)"/>
<path d="M0 0 C1.98 0 3.96 0 6 0 C7.09658936 3.28976808 6.79953138 4.71303767 6 8 C5.34 7.67 4.68 7.34 4 7 C4.33 5.68 4.66 4.36 5 3 C3.02 3 1.04 3 -1 3 C-0.67 2.01 -0.34 1.02 0 0 Z " fill="#563F60" transform="translate(59,139)"/>
<path d="M0 0 C0.66 0.33 1.32 0.66 2 1 C1.67 1.66 1.34 2.32 1 3 C1.4125 2.484375 1.825 1.96875 2.25 1.4375 C2.8275 0.963125 3.405 0.48875 4 0 C6.1875 0.3125 6.1875 0.3125 8 1 C2.375 6 2.375 6 -1 6 C-1.042721 4.33388095 -1.04063832 2.66617115 -1 1 C-0.67 0.67 -0.34 0.34 0 0 Z " fill="#43A0C2" transform="translate(133,80)"/>
<path d="M0 0 C0.66 0 1.32 0 2 0 C2 1.32 2 2.64 2 4 C2.66 4 3.32 4 4 4 C4 2.68 4 1.36 4 0 C4.66 0 5.32 0 6 0 C6 1.65 6 3.3 6 5 C4.34385343 5.38218767 2.67542976 5.71395102 1 6 C0 5 0 5 -0.0625 2.4375 C-0.041875 1.633125 -0.02125 0.82875 0 0 Z " fill="#97C2C6" transform="translate(113,180)"/>
<path d="M0 0 C1.32 0 2.64 0 4 0 C4 1.98 4 3.96 4 6 C2.35 6 0.7 6 -1 6 C-0.67 4.02 -0.34 2.04 0 0 Z " fill="#8AC1C6" transform="translate(57,180)"/>
<path d="M0 0 C0 0.66 0 1.32 0 2 C-2.64 2 -5.28 2 -8 2 C-8.33 3.65 -8.66 5.3 -9 7 C-9.66 5.68 -10.32 4.36 -11 3 C-8.21756596 -1.17365106 -4.53441502 -0.22300402 0 0 Z " fill="#EAE2EC" transform="translate(62,130)"/>
<path d="M0 0 C0.33 0.66 0.66 1.32 1 2 C1.66 2 2.32 2 3 2 C2.34 4.31 1.68 6.62 1 9 C0.01 9 -0.98 9 -2 9 C-1.34 6.03 -0.68 3.06 0 0 Z " fill="#4598BD" transform="translate(118,82)"/>
<path d="M0 0 C1.32 0 2.64 0 4 0 C4 1.98 4 3.96 4 6 C2.35 6 0.7 6 -1 6 C-0.67 4.02 -0.34 2.04 0 0 Z " fill="#94C5C8" transform="translate(175,180)"/>
<path d="M0 0 C0 2.97 0 5.94 0 9 C-0.33 8.34 -0.66 7.68 -1 7 C-1.99 7 -2.98 7 -4 7 C-4.1875 4.625 -4.1875 4.625 -4 2 C-1 0 -1 0 0 0 Z " fill="#DAEBF2" transform="translate(73,177)"/>
<path d="M0 0 C3 1.75 3 1.75 6 4 C6 5.32 6 6.64 6 8 C5.34 8 4.68 8 4 8 C4 6.68 4 5.36 4 4 C3.34 4 2.68 4 2 4 C2 5.32 2 6.64 2 8 C1.34 8 0.68 8 0 8 C0 5.36 0 2.72 0 0 Z " fill="#80B8BC" transform="translate(106,177)"/>
<path d="M0 0 C0.33 1.32 0.66 2.64 1 4 C2.65 4 4.3 4 6 4 C6.33 5.65 6.66 7.3 7 9 C5.02 8.01 3.04 7.02 1 6 C0.67 6.99 0.34 7.98 0 9 C0 6.03 0 3.06 0 0 Z " fill="#808080" transform="translate(191,162)"/>
<path d="M0 0 C0.99 0 1.98 0 3 0 C3 2.64 3 5.28 3 8 C2.01 8 1.02 8 0 8 C0 5.36 0 2.72 0 0 Z " fill="#482958" transform="translate(89,132)"/>
<path d="M0 0 C-0.5590888 3.24271506 -1.4132178 4.93057424 -4 7 C-4.66 7 -5.32 7 -6 7 C-6 5.68 -6 4.36 -6 3 C-2.78571429 0 -2.78571429 0 0 0 Z " fill="#31C1D2" transform="translate(114,64)"/>
<path d="M0 0 C0.66 0.33 1.32 0.66 2 1 C-0.04109589 8.06533193 -0.04109589 8.06533193 -3 10 C-5.1875 9.6875 -5.1875 9.6875 -7 9 C-6.01 9 -5.02 9 -4 9 C-4 8.34 -4 7.68 -4 7 C-3.34 7 -2.68 7 -2 7 C-1.855625 6.401875 -1.71125 5.80375 -1.5625 5.1875 C-1.1127561 3.43849596 -0.57107659 1.71322977 0 0 Z " fill="#D0E4EB" transform="translate(88,61)"/>
<path d="M0 0 C0.66 1.32 1.32 2.64 2 4 C2.99 4 3.98 4 5 4 C5 7 5 7 4 9 C2.68 9 1.36 9 0 9 C0 6.03 0 3.06 0 0 Z " fill="#92C1C4" transform="translate(120,177)"/>
<path d="M0 0 C0 3 0 3 -2 5.1875 C-2.66 5.785625 -3.32 6.38375 -4 7 C-4 6.01 -4 5.02 -4 4 C-5.32 3.34 -6.64 2.68 -8 2 C-6.865625 1.855625 -5.73125 1.71125 -4.5625 1.5625 C-1.19222799 1.38828522 -1.19222799 1.38828522 0 0 Z M-8 4 C-6 5 -6 5 -6 5 Z " fill="#EDECEE" transform="translate(126,152)"/>
<path d="M0 0 C1.98 0.99 1.98 0.99 4 2 C4 4.31 4 6.62 4 9 C3.34 8.01 2.68 7.02 2 6 C1.34 6.66 0.68 7.32 0 8 C0 5.36 0 2.72 0 0 Z " fill="#F1EBF0" transform="translate(142,130)"/>
<path d="M0 0 C0.66 0 1.32 0 2 0 C2 3.3 2 6.6 2 10 C1.34 10 0.68 10 0 10 C-0.19412181 8.52168779 -0.38012131 7.04230684 -0.5625 5.5625 C-0.66691406 4.73878906 -0.77132812 3.91507813 -0.87890625 3.06640625 C-0.91886719 2.38449219 -0.95882812 1.70257813 -1 1 C-0.67 0.67 -0.34 0.34 0 0 Z " fill="#999999" transform="translate(163,161)"/>
<path d="M0 0 C0.66 0 1.32 0 2 0 C2 3.3 2 6.6 2 10 C1.34 10 0.68 10 0 10 C-0.19412181 8.52168779 -0.38012131 7.04230684 -0.5625 5.5625 C-0.66691406 4.73878906 -0.77132812 3.91507813 -0.87890625 3.06640625 C-0.91886719 2.38449219 -0.95882812 1.70257813 -1 1 C-0.67 0.67 -0.34 0.34 0 0 Z " fill="#919191" transform="translate(176,161)"/>
<path d="M0 0 C0.6875 1.8125 0.6875 1.8125 1 4 C-0.4375 5.75 -0.4375 5.75 -2 7 C-4.50357861 6.1654738 -6.66785852 5.20628008 -9 4 C-8.43410156 3.87882813 -7.86820312 3.75765625 -7.28515625 3.6328125 C-6.18494141 3.38144531 -6.18494141 3.38144531 -5.0625 3.125 C-4.33160156 2.96257812 -3.60070312 2.80015625 -2.84765625 2.6328125 C-0.79299706 2.17038477 -0.79299706 2.17038477 0 0 Z " fill="#D7D1D9" transform="translate(113,149)"/>
<path d="M0 0 C1.98 0 3.96 0 6 0 C6.33 0.99 6.66 1.98 7 3 C4.69 3.33 2.38 3.66 0 4 C0 2.68 0 1.36 0 0 Z " fill="#42274E" transform="translate(52,126)"/>
<path d="M0 0 C0.33 0.66 0.66 1.32 1 2 C2.32 1.34 3.64 0.68 5 0 C5.33 0.99 5.66 1.98 6 3 C1.125 7 1.125 7 0 7 C0 4.69 0 2.38 0 0 Z " fill="#565788" transform="translate(90,83)"/>
<path d="M0 0 C2.375 0.6875 2.375 0.6875 5 2 C6.3125 4.625 6.3125 4.625 7 7 C6.34 7.66 5.68 8.32 5 9 C2 4.25 2 4.25 2 2 C1.34 2 0.68 2 0 2 C0 1.34 0 0.68 0 0 Z " fill="#4CBBC7" transform="translate(147,44)"/>
<path d="M0 0 C3.63 0.33 7.26 0.66 11 1 C11 1.33 11 1.66 11 2 C9.35 2 7.7 2 6 2 C5.67 2.66 5.34 3.32 5 4 C3.02 3.34 1.04 2.68 -1 2 C-0.67 1.34 -0.34 0.68 0 0 Z " fill="#EFEBF1" transform="translate(99,153)"/>
<path d="M0 0 C2.97 0.495 2.97 0.495 6 1 C5.67 1.99 5.34 2.98 5 4 C4.01 4 3.02 4 2 4 C2 4.99 2 5.98 2 7 C1.34 7 0.68 7 0 7 C0 4.69 0 2.38 0 0 Z " fill="#BAE5E6" transform="translate(54,178)"/>
<path d="M0 0 C1.32 0.66 2.64 1.32 4 2 C3.34 3.32 2.68 4.64 2 6 C0.68 6 -0.64 6 -2 6 C-1.34 4.02 -0.68 2.04 0 0 Z " fill="#503459" transform="translate(46,139)"/>
<path d="M0 0 C1.98 0.66 3.96 1.32 6 2 C5.67 4.64 5.34 7.28 5 10 C4.67 10 4.34 10 4 10 C4 7.69 4 5.38 4 3 C2.68 3 1.36 3 0 3 C0 2.01 0 1.02 0 0 Z " fill="#C4D1DF" transform="translate(161,68)"/>
<path d="M0 0 C0.66 0 1.32 0 2 0 C2 1.32 2 2.64 2 4 C2.66 4.33 3.32 4.66 4 5 C1.36 4.67 -1.28 4.34 -4 4 C-3.01 3.67 -2.02 3.34 -1 3 C-0.67 2.01 -0.34 1.02 0 0 Z " fill="#A7D8DE" transform="translate(88,181)"/>
<path d="M0 0 C1.32 0.33 2.64 0.66 4 1 C4 2.32 4 3.64 4 5 C2.68 5 1.36 5 0 5 C0 3.35 0 1.7 0 0 Z " fill="#C5E9F0" transform="translate(49,179)"/>
<path d="M0 0 C0.33 0.66 0.66 1.32 1 2 C0.34 1.67 -0.32 1.34 -1 1 C-0.67 0.67 -0.34 0.34 0 0 Z M-4 2 C-3.01 2 -2.02 2 -1 2 C-1 4.31 -1 6.62 -1 9 C-1.33 7.68 -1.66 6.36 -2 5 C-3.32 5.33 -4.64 5.66 -6 6 C-6 5.34 -6 4.68 -6 4 C-5.34 4 -4.68 4 -4 4 C-4 3.34 -4 2.68 -4 2 Z " fill="#CBCBCB" transform="translate(131,161)"/>
<path d="M0 0 C0.33 0.99 0.66 1.98 1 3 C3.00016466 4.20882096 3.00016466 4.20882096 5 5 C5 5.33 5 5.66 5 6 C2.36 6 -0.28 6 -3 6 C-2.01 5.67 -1.02 5.34 0 5 C-0.33 4.01 -0.66 3.02 -1 2 C-0.67 1.34 -0.34 0.68 0 0 Z " fill="#E1E1E0" transform="translate(194,155)"/>
<path d="M0 0 C2.125 0.9375 2.125 0.9375 4 2 C4 2.66 4 3.32 4 4 C1.69 4 -0.62 4 -3 4 C-2.67 3.01 -2.34 2.02 -2 1 C-1.34 0.67 -0.68 0.34 0 0 Z " fill="#3F2646" transform="translate(80,149)"/>
<path d="M0 0 C1.98 0.495 1.98 0.495 4 1 C4 1.66 4 2.32 4 3 C3.34 3 2.68 3 2 3 C2.33 3.99 2.66 4.98 3 6 C1.68 5.34 0.36 4.68 -1 4 C-0.67 2.68 -0.34 1.36 0 0 Z " fill="#4E3A55" transform="translate(99,147)"/>
<path d="M0 0 C0.66 0.33 1.32 0.66 2 1 C2 4.3 2 7.6 2 11 C1.34 10.67 0.68 10.34 0 10 C-1.29411765 2.58823529 -1.29411765 2.58823529 0 0 Z " fill="#D3C8D6" transform="translate(50,134)"/>
<path d="M0 0 C0.66 0.33 1.32 0.66 2 1 C2 3.31 2 5.62 2 8 C1.01 7.67 0.02 7.34 -1 7 C-1.04254356 5.00045254 -1.04080783 2.99958364 -1 1 C-0.67 0.67 -0.34 0.34 0 0 Z " fill="#CDC6CE" transform="translate(155,137)"/>
<path d="M0 0 C0.66 0.33 1.32 0.66 2 1 C1.67 2.65 1.34 4.3 1 6 C-1.31 6 -3.62 6 -6 6 C-5.38125 5.566875 -4.7625 5.13375 -4.125 4.6875 C-1.7802755 3.00259517 -1.7802755 3.00259517 0 0 Z " fill="#5A4166" transform="translate(193,131)"/>
<path d="M0 0 C-3.01324195 1.50662097 -5.68286377 1.17770373 -9 1 C-9.66 0.34 -10.32 -0.32 -11 -1 C-3.375 -2.25 -3.375 -2.25 0 0 Z " fill="#EFEAEF" transform="translate(173,130)"/>
<path d="M0 0 C1.65 0 3.3 0 5 0 C4.34 1.32 3.68 2.64 3 4 C1.35 4 -0.3 4 -2 4 C-1.34 2.68 -0.68 1.36 0 0 Z " fill="#593A64" transform="translate(58,126)"/>
<path d="M0 0 C2.01136276 2.55991624 3.62845496 5.04590299 5 8 C3.35 7.67 1.7 7.34 0 7 C-1.04449911 3.86650268 -0.93423645 3.01031744 0 0 Z " fill="#5A8FAA" transform="translate(155,62)"/>
<path d="M0 0 C0.99 0 1.98 0 3 0 C3 0.66 3 1.32 3 2 C3.66 2 4.32 2 5 2 C5.33 2.99 5.66 3.98 6 5 C5.01 5.495 5.01 5.495 4 6 C4 5.34 4 4.68 4 4 C2.68 4 1.36 4 0 4 C0 2.68 0 1.36 0 0 Z " fill="#2FC1D1" transform="translate(144,44)"/>
<path d="M0 0 C-0.33 0.66 -0.66 1.32 -1 2 C-3.31 2 -5.62 2 -8 2 C-8.33 1.34 -8.66 0.68 -9 0 C-5.93109813 -1.53445094 -3.29905734 -0.54984289 0 0 Z " fill="#382141" transform="translate(64,151)"/>
<path d="M0 0 C0.66 0 1.32 0 2 0 C2.66 1.32 3.32 2.64 4 4 C3.01 4.66 2.02 5.32 1 6 C0.34 5.67 -0.32 5.34 -1 5 C-0.67 3.35 -0.34 1.7 0 0 Z " fill="#E0D9E2" transform="translate(43,145)"/>
<path d="M0 0 C0.66 0.33 1.32 0.66 2 1 C1.34 2.65 0.68 4.3 0 6 C-0.99 6 -1.98 6 -3 6 C-1.125 1.125 -1.125 1.125 0 0 Z " fill="#DADFEB" transform="translate(160,79)"/>
<path d="M0 0 C3 1 3 1 4 3 C3.01 3 2.02 3 1 3 C1 3.66 1 4.32 1 5 C1.66 5.33 2.32 5.66 3 6 C1.68 5.67 0.36 5.34 -1 5 C-0.67 3.35 -0.34 1.7 0 0 Z " fill="#8ABBC1" transform="translate(164,180)"/>
<path d="M0 0 C2.0625 0.4375 2.0625 0.4375 4 1 C4 1.66 4 2.32 4 3 C3.01 3 2.02 3 1 3 C1 3.66 1 4.32 1 5 C1.66 5.33 2.32 5.66 3 6 C2.01 6 1.02 6 0 6 C-0.38218767 4.34385343 -0.71395102 2.67542976 -1 1 C-0.67 0.67 -0.34 0.34 0 0 Z " fill="#88BCBF" transform="translate(94,180)"/>
<path d="M0 0 C1.65 0 3.3 0 5 0 C5 0.99 5 1.98 5 3 C3.68 3 2.36 3 1 3 C0.67 3.66 0.34 4.32 0 5 C0 3.35 0 1.7 0 0 Z " fill="#92C0C6" transform="translate(150,180)"/>
<path d="M0 0 C0.99 0.33 1.98 0.66 3 1 C3 2.32 3 3.64 3 5 C1.35 5 -0.3 5 -2 5 C-2 4.34 -2 3.68 -2 3 C-1.34 3 -0.68 3 0 3 C0 2.01 0 1.02 0 0 Z " fill="#3E2C45" transform="translate(182,148)"/>
<path d="M0 0 C3.63 0 7.26 0 11 0 C10.67 0.99 10.34 1.98 10 3 C9.34 2.67 8.68 2.34 8 2 C6.62657169 1.9310528 5.24997898 1.91532292 3.875 1.9375 C1.956875 1.9684375 1.956875 1.9684375 0 2 C0 1.34 0 0.68 0 0 Z " fill="#DDD4E0" transform="translate(187,130)"/>
<path d="M0 0 C0.33 0.99 0.66 1.98 1 3 C-0.65 3 -2.3 3 -4 3 C-3 1 -3 1 0 0 Z M-6 3 C-5.34 3 -4.68 3 -4 3 C-4.33 3.99 -4.66 4.98 -5 6 C-5.66 6 -6.32 6 -7 6 C-6.67 5.01 -6.34 4.02 -6 3 Z " fill="#30B3CA" transform="translate(141,77)"/>
</svg>
